<svg width="496" height="305" viewBox="0 0 496 305" fill="none" xmlns="http://www.w3.org/2000/svg">
<path d="M7.392 6.448C7.33333 6.544 7.272 6.616 7.208 6.664C7.144 6.70667 7.064 6.728 6.968 6.728C6.86667 6.728 6.752 6.68533 6.624 6.6C6.50133 6.51467 6.34667 6.42133 6.16 6.32C5.97867 6.21333 5.76267 6.11733 5.512 6.032C5.26133 5.94133 4.96267 5.896 4.616 5.896C4.296 5.896 4.01333 5.936 3.768 6.016C3.528 6.096 3.32533 6.208 3.16 6.352C2.99467 6.496 2.86933 6.66667 2.784 6.864C2.704 7.056 2.664 7.26667 2.664 7.496C2.664 7.78933 2.74133 8.03467 2.896 8.232C3.05067 8.424 3.25333 8.58933 3.504 8.728C3.76 8.86667 4.05067 8.98933 4.376 9.096C4.70133 9.19733 5.032 9.30667 5.368 9.424C5.70933 9.54133 6.04267 9.67467 6.368 9.824C6.69333 9.97333 6.98133 10.1627 7.232 10.392C7.488 10.6213 7.69333 10.9013 7.848 11.232C8.00267 11.5627 8.08 11.9653 8.08 12.44C8.08 12.952 7.992 13.432 7.816 13.88C7.64 14.328 7.384 14.72 7.048 15.056C6.71733 15.3867 6.30667 15.648 5.816 15.84C5.33067 16.032 4.776 16.128 4.152 16.128C3.784 16.128 3.424 16.0907 3.072 16.016C2.72533 15.9467 2.392 15.848 2.072 15.72C1.75733 15.5867 1.46133 15.4267 1.184 15.24C0.906667 15.0533 0.658667 14.8453 0.44 14.616L0.984 13.72C1.032 13.6453 1.09333 13.5867 1.168 13.544C1.24267 13.5013 1.32533 13.48 1.416 13.48C1.53867 13.48 1.67467 13.5387 1.824 13.656C1.97333 13.768 2.152 13.8933 2.36 14.032C2.57333 14.1653 2.82933 14.2907 3.128 14.408C3.42667 14.52 3.784 14.576 4.2 14.576C4.87733 14.576 5.4 14.4107 5.768 14.08C6.14133 13.7493 6.328 13.2933 6.328 12.712C6.328 12.3867 6.25067 12.1227 6.096 11.92C5.94133 11.712 5.736 11.5387 5.48 11.4C5.22933 11.2613 4.94133 11.144 4.616 11.048C4.29067 10.952 3.96 10.8507 3.624 10.744C3.288 10.632 2.95733 10.504 2.632 10.36C2.30667 10.2107 2.016 10.0187 1.76 9.784C1.50933 9.544 1.30667 9.25067 1.152 8.904C0.997333 8.552 0.92 8.11467 0.92 7.592C0.92 7.176 1 6.77333 1.16 6.384C1.32533 5.99467 1.56267 5.65067 1.872 5.352C2.18667 5.048 2.57333 4.80533 3.032 4.624C3.49067 4.44267 4.01333 4.352 4.6 4.352C5.26133 4.352 5.86667 4.456 6.416 4.664C6.97067 4.872 7.448 5.168 7.848 5.552L7.392 6.448ZM16.5061 7.84V16H15.4661C15.2368 16 15.0901 15.8907 15.0261 15.672L14.8981 14.912C14.7275 15.0933 14.5461 15.2587 14.3541 15.408C14.1675 15.5573 13.9675 15.6853 13.7541 15.792C13.5408 15.8987 13.3115 15.9813 13.0661 16.04C12.8261 16.0987 12.5675 16.128 12.2901 16.128C11.8421 16.128 11.4475 16.0533 11.1061 15.904C10.7648 15.7547 10.4768 15.544 10.2421 15.272C10.0128 15 9.83946 14.6747 9.72213 14.296C9.60479 13.912 9.54613 13.4907 9.54613 13.032V7.84H11.2661V13.032C11.2661 13.5813 11.3915 14.008 11.6421 14.312C11.8981 14.616 12.2848 14.768 12.8021 14.768C13.1808 14.768 13.5328 14.6827 13.8581 14.512C14.1888 14.336 14.4981 14.096 14.7861 13.792V7.84H16.5061ZM18.5949 16V7.84H19.6349C19.8695 7.84 20.0189 7.94933 20.0829 8.168L20.1949 8.88C20.3442 8.70933 20.4989 8.55467 20.6589 8.416C20.8189 8.272 20.9895 8.14933 21.1709 8.048C21.3575 7.94133 21.5549 7.85867 21.7629 7.8C21.9762 7.74133 22.2055 7.712 22.4509 7.712C22.7122 7.712 22.9522 7.74933 23.1709 7.824C23.3895 7.89867 23.5815 8.00533 23.7469 8.144C23.9175 8.28267 24.0642 8.45067 24.1869 8.648C24.3095 8.84533 24.4109 9.06667 24.4909 9.312C24.6135 9.02933 24.7682 8.78667 24.9549 8.584C25.1415 8.38133 25.3495 8.216 25.5789 8.088C25.8082 7.96 26.0509 7.86667 26.3069 7.808C26.5682 7.744 26.8322 7.712 27.0989 7.712C27.5362 7.712 27.9255 7.78133 28.2669 7.92C28.6135 8.05867 28.9042 8.26133 29.1389 8.528C29.3789 8.78933 29.5602 9.112 29.6829 9.496C29.8055 9.88 29.8669 10.3173 29.8669 10.808V16H28.1469V10.808C28.1469 10.232 28.0215 9.8 27.7709 9.512C27.5255 9.21867 27.1602 9.072 26.6749 9.072C26.4562 9.072 26.2509 9.10933 26.0589 9.184C25.8669 9.25867 25.6989 9.368 25.5549 9.512C25.4109 9.656 25.2962 9.83733 25.2109 10.056C25.1309 10.2693 25.0909 10.52 25.0909 10.808V16H23.3709V10.808C23.3709 10.2107 23.2509 9.77333 23.0109 9.496C22.7709 9.21333 22.4189 9.072 21.9549 9.072C21.6349 9.072 21.3389 9.15467 21.0669 9.32C20.7949 9.48 20.5442 9.70133 20.3149 9.984V16H18.5949ZM31.8761 16V7.84H32.9161C33.1508 7.84 33.3001 7.94933 33.3641 8.168L33.4761 8.88C33.6255 8.70933 33.7801 8.55467 33.9401 8.416C34.1001 8.272 34.2708 8.14933 34.4521 8.048C34.6388 7.94133 34.8361 7.85867 35.0441 7.8C35.2575 7.74133 35.4868 7.712 35.7321 7.712C35.9935 7.712 36.2335 7.74933 36.4521 7.824C36.6708 7.89867 36.8628 8.00533 37.0281 8.144C37.1988 8.28267 37.3455 8.45067 37.4681 8.648C37.5908 8.84533 37.6921 9.06667 37.7721 9.312C37.8948 9.02933 38.0495 8.78667 38.2361 8.584C38.4228 8.38133 38.6308 8.216 38.8601 8.088C39.0895 7.96 39.3321 7.86667 39.5881 7.808C39.8495 7.744 40.1135 7.712 40.3801 7.712C40.8175 7.712 41.2068 7.78133 41.5481 7.92C41.8948 8.05867 42.1855 8.26133 42.4201 8.528C42.6601 8.78933 42.8415 9.112 42.9641 9.496C43.0868 9.88 43.1481 10.3173 43.1481 10.808V16H41.4281V10.808C41.4281 10.232 41.3028 9.8 41.0521 9.512C40.8068 9.21867 40.4415 9.072 39.9561 9.072C39.7375 9.072 39.5321 9.10933 39.3401 9.184C39.1481 9.25867 38.9801 9.368 38.8361 9.512C38.6921 9.656 38.5775 9.83733 38.4921 10.056C38.4121 10.2693 38.3721 10.52 38.3721 10.808V16H36.6521V10.808C36.6521 10.2107 36.5321 9.77333 36.2921 9.496C36.0521 9.21333 35.7001 9.072 35.2361 9.072C34.9161 9.072 34.6201 9.15467 34.3481 9.32C34.0761 9.48 33.8255 9.70133 33.5961 9.984V16H31.8761ZM49.5174 12.432C48.904 12.4533 48.3867 12.504 47.9654 12.584C47.544 12.6587 47.2027 12.7573 46.9414 12.88C46.68 12.9973 46.4907 13.1387 46.3734 13.304C46.2614 13.4693 46.2054 13.6507 46.2054 13.848C46.2054 14.04 46.2347 14.2053 46.2934 14.344C46.3574 14.4773 46.4427 14.5893 46.5494 14.68C46.6614 14.7653 46.7894 14.8293 46.9334 14.872C47.0827 14.9093 47.2454 14.928 47.4214 14.928C47.8694 14.928 48.2534 14.8453 48.5734 14.68C48.8987 14.5093 49.2134 14.264 49.5174 13.944V12.432ZM44.9574 8.976C45.88 8.11733 46.9787 7.688 48.2534 7.688C48.7227 7.688 49.1387 7.76533 49.5014 7.92C49.8694 8.06933 50.176 8.28267 50.4214 8.56C50.672 8.83733 50.8614 9.168 50.9894 9.552C51.1227 9.93067 51.1894 10.352 51.1894 10.816V16H50.4214C50.256 16 50.1307 15.976 50.0454 15.928C49.96 15.8747 49.888 15.7707 49.8294 15.616L49.6614 14.952C49.4534 15.1387 49.248 15.3067 49.0454 15.456C48.8427 15.6 48.632 15.7227 48.4134 15.824C48.2 15.9253 47.968 16 47.7174 16.048C47.472 16.1013 47.2 16.128 46.9014 16.128C46.5707 16.128 46.2614 16.0827 45.9734 15.992C45.6907 15.9013 45.4454 15.7653 45.2374 15.584C45.0294 15.3973 44.864 15.168 44.7414 14.896C44.624 14.624 44.5654 14.304 44.5654 13.936C44.5654 13.6213 44.648 13.3147 44.8134 13.016C44.984 12.7173 45.2614 12.4507 45.6454 12.216C46.0347 11.976 46.544 11.7787 47.1734 11.624C47.808 11.4693 48.5894 11.3813 49.5174 11.36V10.816C49.5174 10.2293 49.392 9.792 49.1414 9.504C48.8907 9.216 48.5227 9.072 48.0374 9.072C47.7067 9.072 47.4294 9.11467 47.2054 9.2C46.9814 9.28 46.7867 9.368 46.6214 9.464C46.456 9.56 46.3094 9.65067 46.1814 9.736C46.0534 9.816 45.9174 9.856 45.7734 9.856C45.656 9.856 45.5547 9.82667 45.4694 9.768C45.3894 9.704 45.3227 9.62667 45.2694 9.536L44.9574 8.976ZM54.8283 9.352C55.0843 8.83467 55.3936 8.42933 55.7563 8.136C56.1189 7.83733 56.5536 7.688 57.0603 7.688C57.2363 7.688 57.4016 7.70933 57.5563 7.752C57.7109 7.78933 57.8496 7.848 57.9723 7.928L57.8523 9.224C57.8309 9.31467 57.7963 9.37867 57.7483 9.416C57.7056 9.448 57.6469 9.464 57.5723 9.464C57.4923 9.464 57.3776 9.45067 57.2283 9.424C57.0789 9.392 56.9216 9.376 56.7563 9.376C56.5163 9.376 56.3029 9.41067 56.1163 9.48C55.9349 9.54933 55.7696 9.65067 55.6203 9.784C55.4763 9.91733 55.3483 10.08 55.2363 10.272C55.1243 10.464 55.0203 10.6827 54.9243 10.928V16H53.2043V7.84H54.2043C54.3856 7.84 54.5109 7.87467 54.5803 7.944C54.6496 8.008 54.6976 8.12267 54.7243 8.288L54.8283 9.352ZM66.3505 7.84L61.8545 18.32C61.7958 18.4427 61.7238 18.5387 61.6385 18.608C61.5585 18.6773 61.4332 18.712 61.2625 18.712H59.9905L61.4945 15.448L58.1665 7.84H59.6625C59.8065 7.84 59.9158 7.87467 59.9905 7.944C60.0705 8.008 60.1292 8.08533 60.1665 8.176L62.1105 12.808C62.1585 12.9413 62.2012 13.0747 62.2385 13.208C62.2812 13.336 62.3212 13.4693 62.3585 13.608C62.4012 13.4693 62.4438 13.3333 62.4865 13.2C62.5292 13.0667 62.5772 12.9333 62.6305 12.8L64.4945 8.176C64.5318 8.08 64.5932 8 64.6785 7.936C64.7692 7.872 64.8678 7.84 64.9745 7.84H66.3505Z" fill="#474747"/>
<path d="M17.7848 227.793C17.7848 228.608 17.6959 229.314 17.5183 229.912C17.3449 230.506 17.1066 230.998 16.8033 231.388C16.4999 231.778 16.1403 232.068 15.7243 232.259C15.3126 232.449 14.8706 232.545 14.3983 232.545C13.9216 232.545 13.4774 232.449 13.0658 232.259C12.6584 232.068 12.3031 231.778 11.9998 231.388C11.6964 230.998 11.4581 230.506 11.2848 229.912C11.1114 229.314 11.0248 228.608 11.0248 227.793C11.0248 226.979 11.1114 226.272 11.2848 225.674C11.4581 225.076 11.6964 224.582 11.9998 224.192C12.3031 223.798 12.6584 223.505 13.0658 223.315C13.4774 223.124 13.9216 223.029 14.3983 223.029C14.8706 223.029 15.3126 223.124 15.7243 223.315C16.1403 223.505 16.4999 223.798 16.8033 224.192C17.1066 224.582 17.3449 225.076 17.5183 225.674C17.6959 226.272 17.7848 226.979 17.7848 227.793ZM16.5823 227.793C16.5823 227.083 16.5216 226.487 16.4003 226.006C16.2833 225.52 16.1229 225.13 15.9193 224.836C15.7199 224.541 15.4881 224.331 15.2238 224.205C14.9594 224.075 14.6843 224.01 14.3983 224.01C14.1123 224.01 13.8371 224.075 13.5728 224.205C13.3084 224.331 13.0766 224.541 12.8773 224.836C12.6779 225.13 12.5176 225.52 12.3963 226.006C12.2793 226.487 12.2208 227.083 12.2208 227.793C12.2208 228.504 12.2793 229.1 12.3963 229.581C12.5176 230.062 12.6779 230.45 12.8773 230.744C13.0766 231.039 13.3084 231.251 13.5728 231.381C13.8371 231.507 14.1123 231.57 14.3983 231.57C14.6843 231.57 14.9594 231.507 15.2238 231.381C15.4881 231.251 15.7199 231.039 15.9193 230.744C16.1229 230.45 16.2833 230.062 16.4003 229.581C16.5216 229.1 16.5823 228.504 16.5823 227.793Z" fill="#474747"/>
<path d="M12.4178 192.891V193.775H7.42578V192.891H9.42128V186.541C9.42128 186.35 9.42778 186.157 9.44078 185.962L7.78328 187.386C7.72695 187.434 7.67061 187.464 7.61428 187.477C7.55795 187.486 7.50595 187.486 7.45828 187.477C7.41061 187.468 7.36511 187.451 7.32178 187.425C7.28278 187.399 7.25245 187.371 7.23078 187.34L6.86678 186.84L9.64228 184.441H10.5848V192.891H12.4178ZM20.4918 189.121C20.4918 189.936 20.403 190.642 20.2253 191.24C20.052 191.834 19.8136 192.326 19.5103 192.716C19.207 193.106 18.8473 193.396 18.4313 193.587C18.0196 193.778 17.5776 193.873 17.1053 193.873C16.6286 193.873 16.1845 193.778 15.7728 193.587C15.3655 193.396 15.0101 193.106 14.7068 192.716C14.4035 192.326 14.1651 191.834 13.9918 191.24C13.8185 190.642 13.7318 189.936 13.7318 189.121C13.7318 188.307 13.8185 187.6 13.9918 187.002C14.1651 186.404 14.4035 185.91 14.7068 185.52C15.0101 185.126 15.3655 184.834 15.7728 184.643C16.1845 184.452 16.6286 184.357 17.1053 184.357C17.5776 184.357 18.0196 184.452 18.4313 184.643C18.8473 184.834 19.207 185.126 19.5103 185.52C19.8136 185.91 20.052 186.404 20.2253 187.002C20.403 187.6 20.4918 188.307 20.4918 189.121ZM19.2893 189.121C19.2893 188.411 19.2286 187.815 19.1073 187.334C18.9903 186.849 18.83 186.459 18.6263 186.164C18.427 185.869 18.1951 185.659 17.9308 185.533C17.6665 185.403 17.3913 185.338 17.1053 185.338C16.8193 185.338 16.5441 185.403 16.2798 185.533C16.0155 185.659 15.7836 185.869 15.5843 186.164C15.385 186.459 15.2246 186.849 15.1033 187.334C14.9863 187.815 14.9278 188.411 14.9278 189.121C14.9278 189.832 14.9863 190.428 15.1033 190.909C15.2246 191.39 15.385 191.778 15.5843 192.072C15.7836 192.367 16.0155 192.579 16.2798 192.709C16.5441 192.835 16.8193 192.898 17.1053 192.898C17.3913 192.898 17.6665 192.835 17.9308 192.709C18.1951 192.579 18.427 192.367 18.6263 192.072C18.83 191.778 18.9903 191.39 19.1073 190.909C19.2286 190.428 19.2893 189.832 19.2893 189.121Z" fill="#474747"/>
<path d="M24.7032 241.798C24.7032 242.318 24.6382 242.784 24.5082 243.196C24.3826 243.607 24.1941 243.956 23.9427 244.242C23.6957 244.524 23.3902 244.74 23.0262 244.892C22.6622 245.044 22.2441 245.12 21.7717 245.12C21.3427 245.12 20.9051 245.059 20.4587 244.938C20.4674 244.812 20.4782 244.688 20.4912 244.567C20.5042 244.441 20.5151 244.318 20.5237 244.197C20.5324 244.123 20.5584 244.064 20.6017 244.021C20.6494 243.973 20.7209 243.95 20.8162 243.95C20.8942 243.95 20.9961 243.969 21.1217 244.008C21.2517 244.047 21.4251 244.067 21.6417 244.067C21.9277 244.067 22.1834 244.023 22.4087 243.937C22.6341 243.85 22.8226 243.716 22.9742 243.534C23.1259 243.352 23.2407 243.12 23.3187 242.838C23.4011 242.552 23.4422 242.214 23.4422 241.824V235.701H24.7032V241.798ZM30.0309 242.052C29.4979 242.069 29.0429 242.112 28.6659 242.182C28.2932 242.247 27.9877 242.333 27.7494 242.442C27.5154 242.55 27.3442 242.678 27.2359 242.825C27.1319 242.972 27.0799 243.137 27.0799 243.319C27.0799 243.492 27.1081 243.642 27.1644 243.768C27.2207 243.893 27.2966 243.997 27.3919 244.08C27.4916 244.158 27.6064 244.216 27.7364 244.255C27.8707 244.29 28.0137 244.307 28.1654 244.307C28.3691 244.307 28.5554 244.288 28.7244 244.249C28.8934 244.205 29.0516 244.145 29.1989 244.067C29.3506 243.989 29.4936 243.895 29.6279 243.787C29.7666 243.679 29.9009 243.555 30.0309 243.417V242.052ZM26.2934 239.361C26.6574 239.01 27.0496 238.747 27.4699 238.574C27.8902 238.401 28.3561 238.314 28.8674 238.314C29.2357 238.314 29.5629 238.375 29.8489 238.496C30.1349 238.617 30.3754 238.786 30.5704 239.003C30.7654 239.22 30.9127 239.482 31.0124 239.79C31.1121 240.097 31.1619 240.435 31.1619 240.804V245.016H30.6484C30.5357 245.016 30.4491 244.998 30.3884 244.964C30.3277 244.925 30.2801 244.851 30.2454 244.743L30.1154 244.119C29.9421 244.279 29.7731 244.422 29.6084 244.548C29.4437 244.669 29.2704 244.773 29.0884 244.86C28.9064 244.942 28.7114 245.005 28.5034 245.048C28.2997 245.096 28.0722 245.12 27.8209 245.12C27.5652 245.12 27.3247 245.085 27.0994 245.016C26.8741 244.942 26.6769 244.834 26.5079 244.691C26.3432 244.548 26.2111 244.368 26.1114 244.151C26.0161 243.93 25.9684 243.67 25.9684 243.371C25.9684 243.111 26.0399 242.862 26.1829 242.624C26.3259 242.381 26.5577 242.166 26.8784 241.98C27.1991 241.794 27.6172 241.642 28.1329 241.525C28.6486 241.404 29.2812 241.334 30.0309 241.317V240.804C30.0309 240.292 29.9204 239.907 29.6994 239.647C29.4784 239.382 29.1556 239.25 28.7309 239.25C28.4449 239.25 28.2044 239.287 28.0094 239.361C27.8187 239.43 27.6519 239.51 27.5089 239.601C27.3702 239.688 27.2489 239.768 27.1449 239.842C27.0452 239.911 26.9456 239.946 26.8459 239.946C26.7679 239.946 26.7007 239.926 26.6444 239.887C26.5881 239.844 26.5404 239.792 26.5014 239.731L26.2934 239.361ZM34.0163 239.387C34.1593 239.226 34.311 239.081 34.4713 238.951C34.6316 238.821 34.8006 238.711 34.9783 238.62C35.1603 238.524 35.351 238.453 35.5503 238.405C35.754 238.353 35.9728 238.327 36.2068 238.327C36.5665 238.327 36.8828 238.388 37.1558 238.509C37.4331 238.626 37.6628 238.795 37.8448 239.016C38.0311 239.233 38.172 239.495 38.2673 239.803C38.3626 240.11 38.4103 240.45 38.4103 240.823V245.016H37.2468V240.823C37.2468 240.325 37.132 239.939 36.9023 239.666C36.677 239.389 36.3325 239.25 35.8688 239.25C35.5265 239.25 35.2058 239.332 34.9068 239.497C34.6121 239.662 34.3391 239.885 34.0878 240.167V245.016H32.9243V238.431H33.6198C33.7845 238.431 33.8863 238.511 33.9253 238.672L34.0163 239.387Z" fill="#474747"/>
<path d="M111.699 236.728V239.985H115.527V241.012H111.699V245.016H110.438V235.701H116.177V236.728H111.699ZM121.351 241.005C121.351 240.736 121.312 240.492 121.234 240.271C121.16 240.045 121.05 239.852 120.902 239.692C120.759 239.527 120.584 239.402 120.376 239.315C120.168 239.224 119.932 239.179 119.667 239.179C119.113 239.179 118.673 239.341 118.348 239.666C118.027 239.987 117.828 240.433 117.75 241.005H121.351ZM122.287 244.093C122.144 244.266 121.973 244.418 121.773 244.548C121.574 244.673 121.36 244.777 121.13 244.86C120.905 244.942 120.671 245.003 120.428 245.042C120.185 245.085 119.945 245.107 119.706 245.107C119.251 245.107 118.831 245.031 118.445 244.879C118.064 244.723 117.733 244.498 117.451 244.203C117.174 243.904 116.957 243.536 116.801 243.098C116.645 242.66 116.567 242.158 116.567 241.59C116.567 241.131 116.636 240.702 116.775 240.303C116.918 239.904 117.122 239.56 117.386 239.27C117.65 238.975 117.973 238.745 118.354 238.581C118.736 238.412 119.165 238.327 119.641 238.327C120.036 238.327 120.4 238.394 120.733 238.529C121.071 238.659 121.362 238.849 121.604 239.101C121.851 239.348 122.044 239.655 122.183 240.024C122.322 240.388 122.391 240.804 122.391 241.272C122.391 241.454 122.371 241.575 122.332 241.636C122.293 241.696 122.22 241.727 122.111 241.727H117.711C117.724 242.143 117.78 242.504 117.88 242.812C117.984 243.12 118.127 243.378 118.309 243.586C118.491 243.789 118.708 243.943 118.959 244.047C119.21 244.147 119.492 244.197 119.804 244.197C120.094 244.197 120.343 244.164 120.551 244.099C120.764 244.03 120.946 243.956 121.097 243.878C121.249 243.8 121.375 243.729 121.474 243.664C121.578 243.594 121.667 243.56 121.741 243.56C121.836 243.56 121.91 243.596 121.962 243.67L122.287 244.093ZM124.976 243.43C125.188 243.716 125.42 243.917 125.671 244.034C125.927 244.151 126.206 244.21 126.51 244.21C127.129 244.21 127.604 243.991 127.933 243.553C128.262 243.115 128.427 242.463 128.427 241.597C128.427 240.791 128.28 240.199 127.985 239.822C127.695 239.441 127.279 239.25 126.737 239.25C126.36 239.25 126.031 239.337 125.749 239.51C125.472 239.683 125.214 239.928 124.976 240.245V243.43ZM124.976 239.38C125.253 239.059 125.565 238.804 125.912 238.613C126.263 238.422 126.666 238.327 127.121 238.327C127.506 238.327 127.853 238.401 128.161 238.548C128.473 238.695 128.737 238.91 128.954 239.192C129.17 239.469 129.335 239.807 129.448 240.206C129.565 240.604 129.623 241.053 129.623 241.551C129.623 242.084 129.558 242.569 129.428 243.007C129.298 243.445 129.11 243.82 128.863 244.132C128.62 244.439 128.323 244.68 127.972 244.853C127.621 245.022 127.227 245.107 126.789 245.107C126.356 245.107 125.99 245.026 125.691 244.866C125.396 244.701 125.138 244.47 124.917 244.171L124.859 244.769C124.824 244.933 124.724 245.016 124.56 245.016H123.812V235.441H124.976V239.38Z" fill="#474747"/>
<path d="M211.008 235.701V245.016H209.903V238.171C209.903 238.08 209.905 237.983 209.909 237.879C209.918 237.775 209.927 237.668 209.935 237.56L206.737 243.384C206.638 243.579 206.486 243.677 206.282 243.677H206.1C205.897 243.677 205.745 243.579 205.645 243.384L202.382 237.534C202.408 237.764 202.421 237.976 202.421 238.171V245.016H201.316V235.701H202.246C202.359 235.701 202.445 235.712 202.506 235.734C202.567 235.755 202.625 235.816 202.681 235.916L205.899 241.649C205.951 241.753 206.001 241.861 206.048 241.974C206.1 242.086 206.148 242.201 206.191 242.318C206.235 242.201 206.28 242.086 206.328 241.974C206.376 241.857 206.428 241.746 206.484 241.642L209.643 235.916C209.695 235.816 209.751 235.755 209.812 235.734C209.877 235.712 209.966 235.701 210.078 235.701H211.008ZM216.495 242.052C215.962 242.069 215.507 242.112 215.13 242.182C214.757 242.247 214.452 242.333 214.213 242.442C213.979 242.55 213.808 242.678 213.7 242.825C213.596 242.972 213.544 243.137 213.544 243.319C213.544 243.492 213.572 243.642 213.628 243.768C213.685 243.893 213.76 243.997 213.856 244.08C213.955 244.158 214.07 244.216 214.2 244.255C214.335 244.29 214.478 244.307 214.629 244.307C214.833 244.307 215.019 244.288 215.188 244.249C215.357 244.205 215.515 244.145 215.663 244.067C215.814 243.989 215.957 243.895 216.092 243.787C216.23 243.679 216.365 243.555 216.495 243.417V242.052ZM212.757 239.361C213.121 239.01 213.513 238.747 213.934 238.574C214.354 238.401 214.82 238.314 215.331 238.314C215.7 238.314 216.027 238.375 216.313 238.496C216.599 238.617 216.839 238.786 217.034 239.003C217.229 239.22 217.377 239.482 217.476 239.79C217.576 240.097 217.626 240.435 217.626 240.804V245.016H217.112C217 245.016 216.913 244.998 216.852 244.964C216.792 244.925 216.744 244.851 216.709 244.743L216.579 244.119C216.406 244.279 216.237 244.422 216.072 244.548C215.908 244.669 215.734 244.773 215.552 244.86C215.37 244.942 215.175 245.005 214.967 245.048C214.764 245.096 214.536 245.12 214.285 245.12C214.029 245.12 213.789 245.085 213.563 245.016C213.338 244.942 213.141 244.834 212.972 244.691C212.807 244.548 212.675 244.368 212.575 244.151C212.48 243.93 212.432 243.67 212.432 243.371C212.432 243.111 212.504 242.862 212.647 242.624C212.79 242.381 213.022 242.166 213.342 241.98C213.663 241.794 214.081 241.642 214.597 241.525C215.112 241.404 215.745 241.334 216.495 241.317V240.804C216.495 240.292 216.384 239.907 216.163 239.647C215.942 239.382 215.619 239.25 215.195 239.25C214.909 239.25 214.668 239.287 214.473 239.361C214.283 239.43 214.116 239.51 213.973 239.601C213.834 239.688 213.713 239.768 213.609 239.842C213.509 239.911 213.409 239.946 213.31 239.946C213.232 239.946 213.165 239.926 213.108 239.887C213.052 239.844 213.004 239.792 212.965 239.731L212.757 239.361ZM220.487 239.751C220.695 239.3 220.95 238.949 221.254 238.698C221.557 238.442 221.928 238.314 222.365 238.314C222.504 238.314 222.636 238.329 222.762 238.36C222.892 238.39 223.007 238.438 223.106 238.503L223.022 239.367C222.996 239.475 222.931 239.53 222.827 239.53C222.766 239.53 222.677 239.517 222.56 239.491C222.443 239.465 222.311 239.452 222.164 239.452C221.956 239.452 221.769 239.482 221.605 239.543C221.444 239.603 221.299 239.694 221.169 239.816C221.044 239.933 220.929 240.08 220.825 240.258C220.725 240.431 220.634 240.63 220.552 240.856V245.016H219.388V238.431H220.051C220.177 238.431 220.264 238.455 220.311 238.503C220.359 238.55 220.391 238.633 220.409 238.75L220.487 239.751Z" fill="#474747"/>
<path d="M392.766 235.701V245.016H391.661V238.171C391.661 238.08 391.663 237.983 391.667 237.879C391.676 237.775 391.685 237.668 391.693 237.56L388.495 243.384C388.396 243.579 388.244 243.677 388.04 243.677H387.858C387.655 243.677 387.503 243.579 387.403 243.384L384.14 237.534C384.166 237.764 384.179 237.976 384.179 238.171V245.016H383.074V235.701H384.004C384.116 235.701 384.203 235.712 384.264 235.734C384.324 235.755 384.383 235.816 384.439 235.916L387.657 241.649C387.709 241.753 387.759 241.861 387.806 241.974C387.858 242.086 387.906 242.201 387.949 242.318C387.993 242.201 388.038 242.086 388.086 241.974C388.133 241.857 388.185 241.746 388.242 241.642L391.401 235.916C391.453 235.816 391.509 235.755 391.57 235.734C391.635 235.712 391.724 235.701 391.836 235.701H392.766ZM398.253 242.052C397.72 242.069 397.265 242.112 396.888 242.182C396.515 242.247 396.209 242.333 395.971 242.442C395.737 242.55 395.566 242.678 395.458 242.825C395.354 242.972 395.302 243.137 395.302 243.319C395.302 243.492 395.33 243.642 395.386 243.768C395.442 243.893 395.518 243.997 395.614 244.08C395.713 244.158 395.828 244.216 395.958 244.255C396.092 244.29 396.235 244.307 396.387 244.307C396.591 244.307 396.777 244.288 396.946 244.249C397.115 244.205 397.273 244.145 397.421 244.067C397.572 243.989 397.715 243.895 397.85 243.787C397.988 243.679 398.123 243.555 398.253 243.417V242.052ZM394.515 239.361C394.879 239.01 395.271 238.747 395.692 238.574C396.112 238.401 396.578 238.314 397.089 238.314C397.457 238.314 397.785 238.375 398.071 238.496C398.357 238.617 398.597 238.786 398.792 239.003C398.987 239.22 399.134 239.482 399.234 239.79C399.334 240.097 399.384 240.435 399.384 240.804V245.016H398.87C398.757 245.016 398.671 244.998 398.61 244.964C398.549 244.925 398.502 244.851 398.467 244.743L398.337 244.119C398.164 244.279 397.995 244.422 397.83 244.548C397.665 244.669 397.492 244.773 397.31 244.86C397.128 244.942 396.933 245.005 396.725 245.048C396.521 245.096 396.294 245.12 396.043 245.12C395.787 245.12 395.546 245.085 395.321 245.016C395.096 244.942 394.899 244.834 394.73 244.691C394.565 244.548 394.433 244.368 394.333 244.151C394.238 243.93 394.19 243.67 394.19 243.371C394.19 243.111 394.262 242.862 394.405 242.624C394.548 242.381 394.779 242.166 395.1 241.98C395.421 241.794 395.839 241.642 396.355 241.525C396.87 241.404 397.503 241.334 398.253 241.317V240.804C398.253 240.292 398.142 239.907 397.921 239.647C397.7 239.382 397.377 239.25 396.953 239.25C396.667 239.25 396.426 239.287 396.231 239.361C396.04 239.43 395.874 239.51 395.731 239.601C395.592 239.688 395.471 239.768 395.367 239.842C395.267 239.911 395.167 239.946 395.068 239.946C394.99 239.946 394.922 239.926 394.866 239.887C394.81 239.844 394.762 239.792 394.723 239.731L394.515 239.361ZM406.675 238.431L403.002 246.959C402.963 247.046 402.913 247.115 402.853 247.167C402.796 247.219 402.707 247.245 402.586 247.245H401.728L402.931 244.632L400.214 238.431H401.215C401.314 238.431 401.392 238.457 401.449 238.509C401.509 238.557 401.55 238.611 401.572 238.672L403.334 242.819C403.403 243.001 403.461 243.191 403.509 243.391C403.57 243.187 403.635 242.994 403.704 242.812L405.414 238.672C405.44 238.602 405.483 238.546 405.544 238.503C405.609 238.455 405.68 238.431 405.758 238.431H406.675Z" fill="#474747"/>
<path d="M298.109 241.558L296.646 237.768C296.603 237.655 296.557 237.525 296.51 237.378C296.462 237.226 296.416 237.066 296.373 236.897C296.282 237.248 296.189 237.541 296.094 237.775L294.631 241.558H298.109ZM300.735 245.016H299.76C299.647 245.016 299.556 244.987 299.487 244.931C299.417 244.875 299.365 244.803 299.331 244.717L298.46 242.468H294.28L293.409 244.717C293.383 244.795 293.333 244.864 293.26 244.925C293.186 244.985 293.095 245.016 292.987 245.016H292.012L295.736 235.701H297.01L300.735 245.016ZM302.825 243.43C303.037 243.716 303.269 243.917 303.521 244.034C303.772 244.151 304.054 244.21 304.366 244.21C304.981 244.21 305.453 243.991 305.783 243.553C306.112 243.115 306.277 242.491 306.277 241.681C306.277 241.252 306.238 240.884 306.16 240.576C306.086 240.268 305.978 240.017 305.835 239.822C305.692 239.623 305.516 239.478 305.308 239.387C305.1 239.296 304.864 239.25 304.6 239.25C304.223 239.25 303.891 239.337 303.605 239.51C303.323 239.683 303.063 239.928 302.825 240.245V243.43ZM302.767 239.452C303.044 239.109 303.365 238.834 303.729 238.626C304.093 238.418 304.509 238.314 304.977 238.314C305.358 238.314 305.702 238.388 306.01 238.535C306.318 238.678 306.58 238.893 306.797 239.179C307.013 239.46 307.18 239.811 307.297 240.232C307.414 240.652 307.473 241.135 307.473 241.681C307.473 242.166 307.408 242.619 307.278 243.04C307.148 243.456 306.959 243.817 306.712 244.125C306.469 244.428 306.17 244.669 305.815 244.847C305.464 245.02 305.068 245.107 304.626 245.107C304.223 245.107 303.876 245.039 303.586 244.905C303.3 244.766 303.046 244.576 302.825 244.333V247.245H301.662V238.431H302.357C302.522 238.431 302.624 238.511 302.663 238.672L302.767 239.452ZM310.047 239.751C310.255 239.3 310.511 238.949 310.814 238.698C311.118 238.442 311.488 238.314 311.926 238.314C312.064 238.314 312.197 238.329 312.322 238.36C312.452 238.39 312.567 238.438 312.667 238.503L312.582 239.367C312.556 239.475 312.491 239.53 312.387 239.53C312.327 239.53 312.238 239.517 312.121 239.491C312.004 239.465 311.872 239.452 311.724 239.452C311.516 239.452 311.33 239.482 311.165 239.543C311.005 239.603 310.86 239.694 310.73 239.816C310.604 239.933 310.489 240.08 310.385 240.258C310.286 240.431 310.195 240.63 310.112 240.856V245.016H308.949V238.431H309.612C309.737 238.431 309.824 238.455 309.872 238.503C309.919 238.55 309.952 238.633 309.969 238.75L310.047 239.751Z" fill="#474747"/>
<path d="M480.065 241.798C480.065 242.318 480 242.784 479.87 243.196C479.744 243.607 479.555 243.956 479.304 244.242C479.057 244.524 478.752 244.74 478.388 244.892C478.024 245.044 477.605 245.12 477.133 245.12C476.704 245.12 476.266 245.059 475.82 244.938C475.829 244.812 475.84 244.688 475.853 244.567C475.866 244.441 475.876 244.318 475.885 244.197C475.894 244.123 475.92 244.064 475.963 244.021C476.011 243.973 476.082 243.95 476.178 243.95C476.256 243.95 476.357 243.969 476.483 244.008C476.613 244.047 476.786 244.067 477.003 244.067C477.289 244.067 477.545 244.023 477.77 243.937C477.995 243.85 478.184 243.716 478.336 243.534C478.487 243.352 478.602 243.12 478.68 242.838C478.762 242.552 478.804 242.214 478.804 241.824V235.701H480.065V241.798ZM487.314 238.431V245.016H486.625C486.461 245.016 486.357 244.935 486.313 244.775L486.222 244.067C485.936 244.383 485.616 244.639 485.26 244.834C484.905 245.024 484.498 245.12 484.038 245.12C483.679 245.12 483.36 245.061 483.083 244.944C482.81 244.823 482.58 244.654 482.394 244.437C482.208 244.22 482.067 243.958 481.971 243.651C481.88 243.343 481.835 243.003 481.835 242.63V238.431H482.992V242.63C482.992 243.128 483.105 243.514 483.33 243.787C483.56 244.06 483.908 244.197 484.376 244.197C484.719 244.197 485.037 244.116 485.332 243.956C485.631 243.791 485.906 243.566 486.157 243.28V238.431H487.314ZM490.241 239.387C490.384 239.226 490.536 239.081 490.696 238.951C490.856 238.821 491.025 238.711 491.203 238.62C491.385 238.524 491.576 238.453 491.775 238.405C491.979 238.353 492.197 238.327 492.431 238.327C492.791 238.327 493.107 238.388 493.38 238.509C493.658 238.626 493.887 238.795 494.069 239.016C494.256 239.233 494.397 239.495 494.492 239.803C494.587 240.11 494.635 240.45 494.635 240.823V245.016H493.471V240.823C493.471 240.325 493.357 239.939 493.127 239.666C492.902 239.389 492.557 239.25 492.093 239.25C491.751 239.25 491.43 239.332 491.131 239.497C490.837 239.662 490.564 239.885 490.312 240.167V245.016H489.149V238.431H489.844C490.009 238.431 490.111 238.511 490.15 238.672L490.241 239.387Z" fill="#474747"/>
<path d="M10.2827 154.005C10.4084 154.005 10.508 154.042 10.5817 154.116C10.6554 154.189 10.6922 154.285 10.6922 154.402V155.104H4.47819V154.707C4.47819 154.625 4.49552 154.54 4.53019 154.454C4.56485 154.367 4.61902 154.287 4.69269 154.213L7.67619 151.217C7.92319 150.965 8.14852 150.725 8.35219 150.495C8.55585 150.261 8.72919 150.027 8.87219 149.793C9.01519 149.559 9.12569 149.323 9.20369 149.085C9.28169 148.842 9.32069 148.584 9.32069 148.311C9.32069 148.038 9.27735 147.8 9.19069 147.596C9.10402 147.388 8.98485 147.217 8.83319 147.083C8.68585 146.948 8.51035 146.849 8.30669 146.784C8.10302 146.714 7.88419 146.68 7.65019 146.68C7.41185 146.68 7.19302 146.714 6.99369 146.784C6.79435 146.853 6.61669 146.95 6.46069 147.076C6.30902 147.197 6.18119 147.343 6.07719 147.512C5.97319 147.681 5.89952 147.867 5.85619 148.071C5.80419 148.222 5.73269 148.324 5.64169 148.376C5.55502 148.424 5.43152 148.437 5.27119 148.415L4.66669 148.311C4.72735 147.886 4.84435 147.512 5.01769 147.187C5.19535 146.857 5.41635 146.582 5.68069 146.361C5.94935 146.14 6.25485 145.973 6.59719 145.861C6.93952 145.744 7.31002 145.685 7.70869 145.685C8.10302 145.685 8.47135 145.744 8.81369 145.861C9.15602 145.978 9.45285 146.149 9.70419 146.374C9.95552 146.595 10.1527 146.866 10.2957 147.187C10.4387 147.507 10.5102 147.871 10.5102 148.279C10.5102 148.625 10.4582 148.948 10.3542 149.247C10.2502 149.542 10.1094 149.823 9.93169 150.092C9.75402 150.361 9.54819 150.623 9.31419 150.879C9.08452 151.134 8.83969 151.392 8.57969 151.652L6.12269 154.161C6.29602 154.113 6.47152 154.077 6.64919 154.051C6.82685 154.02 6.99802 154.005 7.16269 154.005H10.2827ZM18.5582 150.45C18.5582 151.264 18.4694 151.971 18.2917 152.569C18.1184 153.162 17.88 153.654 17.5767 154.044C17.2734 154.434 16.9137 154.724 16.4977 154.915C16.086 155.106 15.644 155.201 15.1717 155.201C14.695 155.201 14.2509 155.106 13.8392 154.915C13.4319 154.724 13.0765 154.434 12.7732 154.044C12.4699 153.654 12.2315 153.162 12.0582 152.569C11.8849 151.971 11.7982 151.264 11.7982 150.45C11.7982 149.635 11.8849 148.929 12.0582 148.331C12.2315 147.733 12.4699 147.239 12.7732 146.849C13.0765 146.454 13.4319 146.162 13.8392 145.971C14.2509 145.78 14.695 145.685 15.1717 145.685C15.644 145.685 16.086 145.78 16.4977 145.971C16.9137 146.162 17.2734 146.454 17.5767 146.849C17.88 147.239 18.1184 147.733 18.2917 148.331C18.4694 148.929 18.5582 149.635 18.5582 150.45ZM17.3557 150.45C17.3557 149.739 17.295 149.143 17.1737 148.662C17.0567 148.177 16.8964 147.787 16.6927 147.492C16.4934 147.197 16.2615 146.987 15.9972 146.862C15.7329 146.732 15.4577 146.667 15.1717 146.667C14.8857 146.667 14.6105 146.732 14.3462 146.862C14.0819 146.987 13.85 147.197 13.6507 147.492C13.4514 147.787 13.291 148.177 13.1697 148.662C13.0527 149.143 12.9942 149.739 12.9942 150.45C12.9942 151.16 13.0527 151.756 13.1697 152.237C13.291 152.718 13.4514 153.106 13.6507 153.401C13.85 153.695 14.0819 153.908 14.3462 154.038C14.6105 154.163 14.8857 154.226 15.1717 154.226C15.4577 154.226 15.7329 154.163 15.9972 154.038C16.2615 153.908 16.4934 153.695 16.6927 153.401C16.8964 153.106 17.0567 152.718 17.1737 152.237C17.295 151.756 17.3557 151.16 17.3557 150.45Z" fill="#474747"/>
<path d="M4.71219 109.639C4.77285 109.214 4.88985 108.84 5.06319 108.515C5.23652 108.185 5.45535 107.91 5.71969 107.689C5.98835 107.468 6.29385 107.301 6.63619 107.189C6.98285 107.072 7.35552 107.013 7.75419 107.013C8.14852 107.013 8.51252 107.069 8.84619 107.182C9.17985 107.295 9.46585 107.455 9.70419 107.663C9.94685 107.871 10.1354 108.122 10.2697 108.417C10.404 108.712 10.4712 109.039 10.4712 109.399C10.4712 109.693 10.4322 109.958 10.3542 110.192C10.2805 110.421 10.1722 110.623 10.0292 110.796C9.89052 110.969 9.72152 111.117 9.52219 111.238C9.32285 111.359 9.09969 111.459 8.85269 111.537C9.45935 111.693 9.91435 111.962 10.2177 112.343C10.5254 112.72 10.6792 113.192 10.6792 113.76C10.6792 114.189 10.5969 114.575 10.4322 114.917C10.2719 115.259 10.0509 115.552 9.76919 115.795C9.48752 116.033 9.15819 116.217 8.78119 116.347C8.40852 116.473 8.00769 116.536 7.57869 116.536C7.08469 116.536 6.66219 116.475 6.31119 116.354C5.96019 116.228 5.66335 116.057 5.42069 115.84C5.17802 115.623 4.97869 115.368 4.82269 115.073C4.66669 114.774 4.53452 114.451 4.42619 114.105L4.92669 113.897C5.05669 113.84 5.18235 113.825 5.30369 113.851C5.42935 113.877 5.52035 113.949 5.57669 114.066C5.63302 114.187 5.70235 114.332 5.78469 114.501C5.87135 114.67 5.98835 114.833 6.13569 114.989C6.28302 115.145 6.46935 115.277 6.69469 115.385C6.92435 115.493 7.21469 115.548 7.56569 115.548C7.89069 115.548 8.17452 115.496 8.41719 115.392C8.66419 115.283 8.86785 115.145 9.02819 114.976C9.19285 114.807 9.31635 114.618 9.39869 114.41C9.48102 114.202 9.52219 113.996 9.52219 113.793C9.52219 113.541 9.48969 113.312 9.42469 113.104C9.35969 112.896 9.23835 112.716 9.06069 112.564C8.88302 112.412 8.63819 112.293 8.32619 112.207C8.01852 112.12 7.62202 112.077 7.13669 112.077V111.238C7.53535 111.234 7.87335 111.19 8.15069 111.108C8.43235 111.026 8.65985 110.913 8.83319 110.77C9.01085 110.627 9.13869 110.456 9.21669 110.257C9.29902 110.057 9.34019 109.836 9.34019 109.594C9.34019 109.325 9.29685 109.091 9.21019 108.892C9.12785 108.692 9.01302 108.528 8.86569 108.398C8.71835 108.268 8.54285 108.17 8.33919 108.105C8.13985 108.04 7.92319 108.008 7.68919 108.008C7.45519 108.008 7.23635 108.042 7.03269 108.112C6.83335 108.181 6.65569 108.278 6.49969 108.404C6.34802 108.525 6.22019 108.671 6.11619 108.84C6.01219 109.009 5.93852 109.195 5.89519 109.399C5.83885 109.55 5.76735 109.652 5.68069 109.704C5.59835 109.752 5.47702 109.765 5.31669 109.743L4.71219 109.639ZM18.5582 111.778C18.5582 112.592 18.4694 113.299 18.2917 113.897C18.1184 114.49 17.88 114.982 17.5767 115.372C17.2734 115.762 16.9137 116.052 16.4977 116.243C16.086 116.434 15.644 116.529 15.1717 116.529C14.695 116.529 14.2509 116.434 13.8392 116.243C13.4319 116.052 13.0765 115.762 12.7732 115.372C12.4699 114.982 12.2315 114.49 12.0582 113.897C11.8849 113.299 11.7982 112.592 11.7982 111.778C11.7982 110.963 11.8849 110.257 12.0582 109.659C12.2315 109.061 12.4699 108.567 12.7732 108.177C13.0765 107.782 13.4319 107.49 13.8392 107.299C14.2509 107.108 14.695 107.013 15.1717 107.013C15.644 107.013 16.086 107.108 16.4977 107.299C16.9137 107.49 17.2734 107.782 17.5767 108.177C17.88 108.567 18.1184 109.061 18.2917 109.659C18.4694 110.257 18.5582 110.963 18.5582 111.778ZM17.3557 111.778C17.3557 111.067 17.295 110.471 17.1737 109.99C17.0567 109.505 16.8964 109.115 16.6927 108.82C16.4934 108.525 16.2615 108.315 15.9972 108.19C15.7329 108.06 15.4577 107.995 15.1717 107.995C14.8857 107.995 14.6105 108.06 14.3462 108.19C14.0819 108.315 13.85 108.525 13.6507 108.82C13.4514 109.115 13.291 109.505 13.1697 109.99C13.0527 110.471 12.9942 111.067 12.9942 111.778C12.9942 112.488 13.0527 113.084 13.1697 113.565C13.291 114.046 13.4514 114.434 13.6507 114.729C13.85 115.023 14.0819 115.236 14.3462 115.366C14.6105 115.491 14.8857 115.554 15.1717 115.554C15.4577 115.554 15.7329 115.491 15.9972 115.366C16.2615 115.236 16.4934 115.023 16.6927 114.729C16.8964 114.434 17.0567 114.046 17.1737 113.565C17.295 113.084 17.3557 112.488 17.3557 111.778Z" fill="#474747"/>
<path d="M6.67859 74.3993V70.5578C6.67859 70.4451 6.68293 70.3216 6.69159 70.1873C6.70026 70.0529 6.71326 69.9164 6.73059 69.7778L3.33759 74.3993H6.67859ZM9.10309 74.3993V75.0623C9.10309 75.1316 9.08143 75.1901 9.03809 75.2378C8.99909 75.2854 8.93626 75.3093 8.84959 75.3093H7.69259V77.7598H6.67859V75.3093H2.54459C2.45793 75.3093 2.38209 75.2854 2.31709 75.2378C2.25643 75.1858 2.21743 75.1229 2.20009 75.0493L2.08309 74.4578L6.61359 68.4453H7.69259V74.3993H9.10309ZM16.6246 73.1058C16.6246 73.9204 16.5358 74.6268 16.3581 75.2248C16.1848 75.8184 15.9464 76.3103 15.6431 76.7003C15.3398 77.0903 14.9801 77.3806 14.5641 77.5713C14.1524 77.7619 13.7104 77.8573 13.2381 77.8573C12.7614 77.8573 12.3173 77.7619 11.9056 77.5713C11.4983 77.3806 11.1429 77.0903 10.8396 76.7003C10.5363 76.3103 10.2979 75.8184 10.1246 75.2248C9.95128 74.6268 9.86461 73.9204 9.86461 73.1058C9.86461 72.2911 9.95128 71.5848 10.1246 70.9868C10.2979 70.3888 10.5363 69.8948 10.8396 69.5048C11.1429 69.1104 11.4983 68.8179 11.9056 68.6273C12.3173 68.4366 12.7614 68.3413 13.2381 68.3413C13.7104 68.3413 14.1524 68.4366 14.5641 68.6273C14.9801 68.8179 15.3398 69.1104 15.6431 69.5048C15.9464 69.8948 16.1848 70.3888 16.3581 70.9868C16.5358 71.5848 16.6246 72.2911 16.6246 73.1058ZM15.4221 73.1058C15.4221 72.3951 15.3614 71.7993 15.2401 71.3183C15.1231 70.8329 14.9628 70.4429 14.7591 70.1483C14.5598 69.8536 14.3279 69.6434 14.0636 69.5178C13.7993 69.3878 13.5241 69.3228 13.2381 69.3228C12.9521 69.3228 12.6769 69.3878 12.4126 69.5178C12.1483 69.6434 11.9164 69.8536 11.7171 70.1483C11.5178 70.4429 11.3574 70.8329 11.2361 71.3183C11.1191 71.7993 11.0606 72.3951 11.0606 73.1058C11.0606 73.8164 11.1191 74.4123 11.2361 74.8933C11.3574 75.3743 11.5178 75.7621 11.7171 76.0568C11.9164 76.3514 12.1483 76.5638 12.4126 76.6938C12.6769 76.8194 12.9521 76.8823 13.2381 76.8823C13.5241 76.8823 13.7993 76.8194 14.0636 76.6938C14.3279 76.5638 14.5598 76.3514 14.7591 76.0568C14.9628 75.7621 15.1231 75.3743 15.2401 74.8933C15.3614 74.4123 15.4221 73.8164 15.4221 73.1058Z" fill="#474747"/>
<line x1="29.9702" y1="186.56" x2="489.2" y2="186.56" stroke="#E5E5E5"/>
<line x1="31.9043" y1="149.338" x2="491.134" y2="149.338" stroke="#E5E5E5"/>
<line x1="30.9375" y1="110.666" x2="490.167" y2="110.666" stroke="#E5E5E5"/>
<line x1="30.9375" y1="71.9941" x2="490.167" y2="71.9941" stroke="#E5E5E5"/>
<path d="M30.9375 122.768C30.9375 122.768 62.8418 167.24 73.96 190.443C85.0781 213.646 131.484 90.8633 155.654 90.8633C179.824 90.8633 226.586 220.005 240.249 161.439C253.912 102.874 287.63 116.439 302.124 195.277C316.618 274.116 349.155 125.649 395.903 118.9C433.451 113.48 489.199 145.971 489.199 145.971V226.698H30.9375V122.768Z" fill="url(#paint0_linear)" fill-opacity="0.5" stroke="#59CBE8"/>
<path d="M30.9375 168.207C30.9375 168.207 56.0742 100.531 74.9268 114.066C93.7793 127.602 120.366 72.4941 144.536 72.4941C168.706 72.4941 199.516 253.843 213.179 195.277C226.841 136.712 283.755 35.7559 288.589 123.251C293.423 210.746 358.34 171.089 405.088 164.34C442.636 158.919 489.199 164.34 489.199 164.34V226.698H30.9375V168.207Z" fill="url(#paint1_linear)" fill-opacity="0.5" stroke="#B580D1"/>
<line x1="30.9209" y1="227.194" x2="30.9209" y2="57.0129" stroke="#C4C4C4"/>
<line x1="30.9375" y1="226.682" x2="488.249" y2="226.682" stroke="#C4C4C4"/>
<line x1="386.219" y1="226.226" x2="386.219" y2="42.5118" stroke="#C4C4C4" stroke-dasharray="3 5"/>
<g filter="url(#filter0_d)">
<rect x="341.279" y="18.3535" width="112.148" height="28.0371" fill="white"/>
</g>
<path d="M356.357 36.6261C356.53 36.6261 356.667 36.6759 356.766 36.7756C356.87 36.8709 356.922 36.9988 356.922 37.1591V38.1211H350.474V37.5881C350.474 37.4798 350.496 37.3671 350.539 37.2501C350.587 37.1288 350.661 37.0204 350.76 36.9251L353.614 34.0651C353.852 33.8224 354.065 33.5906 354.251 33.3696C354.442 33.1486 354.6 32.9298 354.725 32.7131C354.851 32.4964 354.946 32.2776 355.011 32.0566C355.081 31.8313 355.115 31.5951 355.115 31.3481C355.115 31.1228 355.083 30.9256 355.018 30.7566C354.953 30.5833 354.86 30.4381 354.738 30.3211C354.621 30.2041 354.478 30.1174 354.309 30.0611C354.145 30.0004 353.958 29.9701 353.75 29.9701C353.56 29.9701 353.382 29.9983 353.217 30.0546C353.057 30.1066 352.914 30.1824 352.788 30.2821C352.663 30.3774 352.557 30.4901 352.47 30.6201C352.383 30.7501 352.318 30.8931 352.275 31.0491C352.201 31.2484 352.106 31.3806 351.989 31.4456C351.872 31.5106 351.703 31.5258 351.482 31.4911L350.637 31.3416C350.702 30.8909 350.828 30.4966 351.014 30.1586C351.2 29.8163 351.432 29.5324 351.709 29.3071C351.991 29.0774 352.312 28.9063 352.671 28.7936C353.035 28.6766 353.425 28.6181 353.841 28.6181C354.275 28.6181 354.671 28.6831 355.031 28.8131C355.391 28.9388 355.698 29.1186 355.954 29.3526C356.21 29.5866 356.409 29.8683 356.552 30.1976C356.695 30.5269 356.766 30.8931 356.766 31.2961C356.766 31.6428 356.714 31.9634 356.61 32.2581C356.511 32.5528 356.374 32.8344 356.201 33.1031C356.032 33.3718 355.833 33.6318 355.603 33.8831C355.373 34.1344 355.133 34.3901 354.881 34.6501L352.762 36.8146C352.966 36.7539 353.168 36.7084 353.367 36.6781C353.571 36.6434 353.763 36.6261 353.945 36.6261H356.357ZM363.898 36.6261C364.071 36.6261 364.208 36.6759 364.307 36.7756C364.411 36.8709 364.463 36.9988 364.463 37.1591V38.1211H358.015V37.5881C358.015 37.4798 358.037 37.3671 358.08 37.2501C358.128 37.1288 358.202 37.0204 358.301 36.9251L361.155 34.0651C361.393 33.8224 361.606 33.5906 361.792 33.3696C361.983 33.1486 362.141 32.9298 362.266 32.7131C362.392 32.4964 362.487 32.2776 362.552 32.0566C362.622 31.8313 362.656 31.5951 362.656 31.3481C362.656 31.1228 362.624 30.9256 362.559 30.7566C362.494 30.5833 362.401 30.4381 362.279 30.3211C362.162 30.2041 362.019 30.1174 361.85 30.0611C361.686 30.0004 361.499 29.9701 361.291 29.9701C361.101 29.9701 360.923 29.9983 360.758 30.0546C360.598 30.1066 360.455 30.1824 360.329 30.2821C360.204 30.3774 360.098 30.4901 360.011 30.6201C359.924 30.7501 359.859 30.8931 359.816 31.0491C359.742 31.2484 359.647 31.3806 359.53 31.4456C359.413 31.5106 359.244 31.5258 359.023 31.4911L358.178 31.3416C358.243 30.8909 358.369 30.4966 358.555 30.1586C358.741 29.8163 358.973 29.5324 359.25 29.3071C359.532 29.0774 359.853 28.9063 360.212 28.7936C360.576 28.6766 360.966 28.6181 361.382 28.6181C361.816 28.6181 362.212 28.6831 362.572 28.8131C362.932 28.9388 363.239 29.1186 363.495 29.3526C363.751 29.5866 363.95 29.8683 364.093 30.1976C364.236 30.5269 364.307 30.8931 364.307 31.2961C364.307 31.6428 364.255 31.9634 364.151 32.2581C364.052 32.5528 363.915 32.8344 363.742 33.1031C363.573 33.3718 363.374 33.6318 363.144 33.8831C362.914 34.1344 362.674 34.3901 362.422 34.6501L360.303 36.8146C360.507 36.7539 360.709 36.7084 360.908 36.6781C361.112 36.6434 361.304 36.6261 361.486 36.6261H363.898ZM365.784 37.4061C365.784 37.2934 365.804 37.1873 365.843 37.0876C365.886 36.9879 365.942 36.9013 366.012 36.8276C366.085 36.7539 366.172 36.6954 366.272 36.6521C366.371 36.6088 366.477 36.5871 366.59 36.5871C366.703 36.5871 366.809 36.6088 366.909 36.6521C367.008 36.6954 367.095 36.7539 367.169 36.8276C367.242 36.9013 367.301 36.9879 367.344 37.0876C367.387 37.1873 367.409 37.2934 367.409 37.4061C367.409 37.5231 367.387 37.6314 367.344 37.7311C367.301 37.8264 367.242 37.9109 367.169 37.9846C367.095 38.0583 367.008 38.1146 366.909 38.1536C366.809 38.1969 366.703 38.2186 366.59 38.2186C366.477 38.2186 366.371 38.1969 366.272 38.1536C366.172 38.1146 366.085 38.0583 366.012 37.9846C365.942 37.9109 365.886 37.8264 365.843 37.7311C365.804 37.6314 365.784 37.5231 365.784 37.4061ZM378.555 29.8661H375.539V38.1211H374.285V29.8661H371.262V28.8066H378.555V29.8661ZM383.721 31.5366V38.1211H383.032C382.867 38.1211 382.763 38.0409 382.72 37.8806L382.629 37.1721C382.343 37.4884 382.022 37.7441 381.667 37.9391C381.311 38.1298 380.904 38.2251 380.445 38.2251C380.085 38.2251 379.766 38.1666 379.489 38.0496C379.216 37.9283 378.986 37.7593 378.8 37.5426C378.614 37.3259 378.473 37.0638 378.378 36.7561C378.287 36.4484 378.241 36.1083 378.241 35.7356V31.5366H379.398V35.7356C379.398 36.2339 379.511 36.6196 379.736 36.8926C379.966 37.1656 380.315 37.3021 380.783 37.3021C381.125 37.3021 381.443 37.2219 381.738 37.0616C382.037 36.8969 382.312 36.6716 382.564 36.3856V31.5366H383.721ZM389.962 34.1106C389.962 33.8419 389.923 33.5971 389.845 33.3761C389.772 33.1508 389.661 32.9579 389.514 32.7976C389.371 32.6329 389.195 32.5073 388.987 32.4206C388.779 32.3296 388.543 32.2841 388.279 32.2841C387.724 32.2841 387.284 32.4466 386.959 32.7716C386.639 33.0923 386.439 33.5386 386.361 34.1106H389.962ZM390.898 37.1981C390.755 37.3714 390.584 37.5231 390.385 37.6531C390.185 37.7788 389.971 37.8828 389.741 37.9651C389.516 38.0474 389.282 38.1081 389.039 38.1471C388.797 38.1904 388.556 38.2121 388.318 38.2121C387.863 38.2121 387.442 38.1363 387.057 37.9846C386.675 37.8286 386.344 37.6033 386.062 37.3086C385.785 37.0096 385.568 36.6413 385.412 36.2036C385.256 35.7659 385.178 35.2633 385.178 34.6956C385.178 34.2363 385.248 33.8073 385.386 33.4086C385.529 33.0099 385.733 32.6654 385.997 32.3751C386.262 32.0804 386.584 31.8508 386.966 31.6861C387.347 31.5171 387.776 31.4326 388.253 31.4326C388.647 31.4326 389.011 31.4998 389.345 31.6341C389.683 31.7641 389.973 31.9548 390.216 32.2061C390.463 32.4531 390.656 32.7608 390.794 33.1291C390.933 33.4931 391.002 33.9091 391.002 34.3771C391.002 34.5591 390.983 34.6804 390.944 34.7411C390.905 34.8018 390.831 34.8321 390.723 34.8321H386.322C386.335 35.2481 386.392 35.6099 386.491 35.9176C386.595 36.2253 386.738 36.4831 386.92 36.6911C387.102 36.8948 387.319 37.0486 387.57 37.1526C387.822 37.2523 388.103 37.3021 388.415 37.3021C388.706 37.3021 388.955 37.2696 389.163 37.2046C389.375 37.1353 389.557 37.0616 389.709 36.9836C389.86 36.9056 389.986 36.8341 390.086 36.7691C390.19 36.6998 390.279 36.6651 390.352 36.6651C390.448 36.6651 390.521 36.7019 390.573 36.7756L390.898 37.1981ZM396.258 32.6221C396.206 32.7174 396.126 32.7651 396.018 32.7651C395.953 32.7651 395.879 32.7413 395.797 32.6936C395.715 32.6459 395.613 32.5939 395.491 32.5376C395.374 32.4769 395.234 32.4228 395.069 32.3751C394.904 32.3231 394.709 32.2971 394.484 32.2971C394.289 32.2971 394.113 32.3231 393.957 32.3751C393.801 32.4228 393.667 32.4899 393.554 32.5766C393.446 32.6633 393.362 32.7651 393.301 32.8821C393.245 32.9948 393.216 33.1183 393.216 33.2526C393.216 33.4216 393.264 33.5624 393.359 33.6751C393.459 33.7878 393.589 33.8853 393.749 33.9676C393.91 34.0499 394.092 34.1236 394.295 34.1886C394.499 34.2493 394.707 34.3164 394.919 34.3901C395.136 34.4594 395.346 34.5374 395.55 34.6241C395.754 34.7108 395.936 34.8191 396.096 34.9491C396.256 35.0791 396.384 35.2394 396.479 35.4301C396.579 35.6164 396.629 35.8418 396.629 36.1061C396.629 36.4094 396.575 36.6911 396.466 36.9511C396.358 37.2068 396.198 37.4299 395.985 37.6206C395.773 37.8069 395.513 37.9543 395.205 38.0626C394.898 38.1709 394.542 38.2251 394.139 38.2251C393.68 38.2251 393.264 38.1514 392.891 38.0041C392.519 37.8524 392.202 37.6596 391.942 37.4256L392.215 36.9836C392.25 36.9273 392.291 36.8839 392.339 36.8536C392.387 36.8233 392.447 36.8081 392.521 36.8081C392.599 36.8081 392.681 36.8384 392.768 36.8991C392.855 36.9598 392.959 37.0269 393.08 37.1006C393.206 37.1743 393.357 37.2414 393.535 37.3021C393.713 37.3628 393.934 37.3931 394.198 37.3931C394.423 37.3931 394.62 37.3649 394.789 37.3086C394.958 37.2479 395.099 37.1678 395.212 37.0681C395.325 36.9684 395.407 36.8536 395.459 36.7236C395.515 36.5936 395.543 36.4549 395.543 36.3076C395.543 36.1256 395.494 35.9761 395.394 35.8591C395.299 35.7378 395.171 35.6359 395.01 35.5536C394.85 35.4669 394.666 35.3933 394.458 35.3326C394.254 35.2676 394.044 35.2004 393.827 35.1311C393.615 35.0618 393.405 34.9838 393.197 34.8971C392.993 34.8061 392.811 34.6934 392.651 34.5591C392.491 34.4248 392.361 34.2601 392.261 34.0651C392.166 33.8658 392.118 33.6253 392.118 33.3436C392.118 33.0923 392.17 32.8518 392.274 32.6221C392.378 32.3881 392.53 32.1844 392.729 32.0111C392.928 31.8334 393.173 31.6926 393.463 31.5886C393.754 31.4846 394.085 31.4326 394.458 31.4326C394.891 31.4326 395.279 31.5019 395.621 31.6406C395.968 31.7749 396.267 31.9613 396.518 32.1996L396.258 32.6221ZM397.976 39.6941C397.941 39.6638 397.917 39.6356 397.904 39.6096C397.891 39.5836 397.885 39.5511 397.885 39.5121C397.885 39.4818 397.894 39.4514 397.911 39.4211C397.933 39.3908 397.956 39.3626 397.982 39.3366C398.026 39.2889 398.08 39.2261 398.145 39.1481C398.214 39.0701 398.284 38.9769 398.353 38.8686C398.422 38.7646 398.485 38.6476 398.541 38.5176C398.602 38.3919 398.645 38.2576 398.671 38.1146C398.658 38.1189 398.643 38.1211 398.626 38.1211C398.613 38.1211 398.6 38.1211 398.587 38.1211C398.362 38.1211 398.177 38.0474 398.034 37.9001C397.896 37.7484 397.826 37.5556 397.826 37.3216C397.826 37.1179 397.896 36.9446 398.034 36.8016C398.177 36.6586 398.366 36.5871 398.6 36.5871C398.73 36.5871 398.845 36.6109 398.944 36.6586C399.044 36.7063 399.126 36.7734 399.191 36.8601C399.261 36.9424 399.313 37.0399 399.347 37.1526C399.382 37.2609 399.399 37.3801 399.399 37.5101C399.399 37.7051 399.371 37.9088 399.315 38.1211C399.263 38.3291 399.183 38.5349 399.074 38.7386C398.97 38.9466 398.843 39.1481 398.691 39.3431C398.539 39.5381 398.366 39.7179 398.171 39.8826L397.976 39.6941ZM410.019 37.2371V38.1211H405.027V37.2371H407.023V30.8866C407.023 30.6959 407.029 30.5031 407.042 30.3081L405.385 31.7316C405.329 31.7793 405.272 31.8096 405.216 31.8226C405.16 31.8313 405.108 31.8313 405.06 31.8226C405.012 31.8139 404.967 31.7966 404.923 31.7706C404.884 31.7446 404.854 31.7164 404.832 31.6861L404.468 31.1856L407.244 28.7871H408.186V37.2371H410.019ZM414.713 37.3021C415.017 37.3021 415.288 37.2609 415.526 37.1786C415.769 37.0919 415.972 36.9728 416.137 36.8211C416.306 36.6651 416.434 36.4809 416.52 36.2686C416.611 36.0519 416.657 35.8136 416.657 35.5536C416.657 35.2329 416.603 34.9599 416.494 34.7346C416.39 34.5049 416.247 34.3186 416.065 34.1756C415.888 34.0326 415.682 33.9286 415.448 33.8636C415.214 33.7943 414.969 33.7596 414.713 33.7596C414.458 33.7596 414.213 33.7943 413.979 33.8636C413.745 33.9286 413.537 34.0326 413.355 34.1756C413.177 34.3186 413.034 34.5049 412.926 34.7346C412.822 34.9599 412.77 35.2329 412.77 35.5536C412.77 35.8136 412.813 36.0519 412.9 36.2686C412.991 36.4809 413.119 36.6651 413.283 36.8211C413.452 36.9728 413.656 37.0919 413.894 37.1786C414.137 37.2609 414.41 37.3021 414.713 37.3021ZM414.713 29.5996C414.436 29.5996 414.191 29.6408 413.979 29.7231C413.771 29.8054 413.595 29.9181 413.452 30.0611C413.314 30.2041 413.208 30.3709 413.134 30.5616C413.065 30.7523 413.03 30.9559 413.03 31.1726C413.03 31.3849 413.06 31.5908 413.121 31.7901C413.182 31.9894 413.279 32.1671 413.413 32.3231C413.548 32.4748 413.721 32.5983 413.933 32.6936C414.15 32.7846 414.41 32.8301 414.713 32.8301C415.017 32.8301 415.275 32.7846 415.487 32.6936C415.704 32.5983 415.879 32.4748 416.013 32.3231C416.148 32.1671 416.245 31.9894 416.306 31.7901C416.367 31.5908 416.397 31.3849 416.397 31.1726C416.397 30.9559 416.36 30.7523 416.286 30.5616C416.217 30.3709 416.111 30.2041 415.968 30.0611C415.829 29.9181 415.654 29.8054 415.441 29.7231C415.233 29.6408 414.991 29.5996 414.713 29.5996ZM416.046 33.2656C416.627 33.4303 417.073 33.7054 417.385 34.0911C417.697 34.4768 417.853 34.9708 417.853 35.5731C417.853 35.9804 417.775 36.3488 417.619 36.6781C417.467 37.0031 417.253 37.2804 416.975 37.5101C416.702 37.7398 416.373 37.9174 415.987 38.0431C415.602 38.1644 415.177 38.2251 414.713 38.2251C414.25 38.2251 413.825 38.1644 413.439 38.0431C413.054 37.9174 412.722 37.7398 412.445 37.5101C412.168 37.2804 411.953 37.0031 411.801 36.6781C411.65 36.3488 411.574 35.9804 411.574 35.5731C411.574 34.9708 411.73 34.4768 412.042 34.0911C412.354 33.7054 412.8 33.4303 413.381 33.2656C412.891 33.0836 412.521 32.8128 412.269 32.4531C412.022 32.0891 411.899 31.6558 411.899 31.1531C411.899 30.8108 411.966 30.4901 412.1 30.1911C412.235 29.8921 412.425 29.6321 412.672 29.4111C412.919 29.1901 413.214 29.0168 413.556 28.8911C413.903 28.7654 414.289 28.7026 414.713 28.7026C415.134 28.7026 415.517 28.7654 415.864 28.8911C416.211 29.0168 416.507 29.1901 416.754 29.4111C417.001 29.6321 417.192 29.8921 417.326 30.1911C417.461 30.4901 417.528 30.8108 417.528 31.1531C417.528 31.6558 417.402 32.0891 417.151 32.4531C416.904 32.8128 416.536 33.0836 416.046 33.2656ZM431.606 33.4671C431.606 34.1648 431.496 34.8061 431.275 35.3911C431.054 35.9718 430.742 36.4723 430.339 36.8926C429.936 37.3129 429.45 37.6401 428.883 37.8741C428.319 38.1038 427.695 38.2186 427.011 38.2186C426.326 38.2186 425.702 38.1038 425.139 37.8741C424.575 37.6401 424.092 37.3129 423.689 36.8926C423.286 36.4723 422.974 35.9718 422.753 35.3911C422.532 34.8061 422.422 34.1648 422.422 33.4671C422.422 32.7694 422.532 32.1303 422.753 31.5496C422.974 30.9646 423.286 30.4619 423.689 30.0416C424.092 29.6169 424.575 29.2876 425.139 29.0536C425.702 28.8196 426.326 28.7026 427.011 28.7026C427.695 28.7026 428.319 28.8196 428.883 29.0536C429.45 29.2876 429.936 29.6169 430.339 30.0416C430.742 30.4619 431.054 30.9646 431.275 31.5496C431.496 32.1303 431.606 32.7694 431.606 33.4671ZM430.313 33.4671C430.313 32.8951 430.235 32.3816 430.079 31.9266C429.923 31.4716 429.702 31.0881 429.416 30.7761C429.13 30.4598 428.783 30.2171 428.376 30.0481C427.968 29.8791 427.513 29.7946 427.011 29.7946C426.512 29.7946 426.059 29.8791 425.652 30.0481C425.245 30.2171 424.896 30.4598 424.606 30.7761C424.32 31.0881 424.099 31.4716 423.943 31.9266C423.787 32.3816 423.709 32.8951 423.709 33.4671C423.709 34.0391 423.787 34.5526 423.943 35.0076C424.099 35.4583 424.32 35.8418 424.606 36.1581C424.896 36.4701 425.245 36.7106 425.652 36.8796C426.059 37.0443 426.512 37.1266 427.011 37.1266C427.513 37.1266 427.968 37.0443 428.376 36.8796C428.783 36.7106 429.13 36.4701 429.416 36.1581C429.702 35.8418 429.923 35.4583 430.079 35.0076C430.235 34.5526 430.313 34.0391 430.313 33.4671ZM437.631 32.7066C437.596 32.7543 437.562 32.7911 437.527 32.8171C437.492 32.8431 437.445 32.8561 437.384 32.8561C437.319 32.8561 437.247 32.8301 437.169 32.7781C437.091 32.7218 436.994 32.6611 436.877 32.5961C436.764 32.5311 436.623 32.4726 436.454 32.4206C436.29 32.3643 436.086 32.3361 435.843 32.3361C435.518 32.3361 435.232 32.3946 434.985 32.5116C434.738 32.6243 434.53 32.7889 434.361 33.0056C434.197 33.2223 434.071 33.4844 433.984 33.7921C433.902 34.0998 433.861 34.4443 433.861 34.8256C433.861 35.2243 433.906 35.5796 433.997 35.8916C434.088 36.1993 434.216 36.4593 434.381 36.6716C434.55 36.8796 434.751 37.0399 434.985 37.1526C435.224 37.2609 435.49 37.3151 435.785 37.3151C436.067 37.3151 436.298 37.2826 436.48 37.2176C436.662 37.1483 436.812 37.0724 436.929 36.9901C437.05 36.9078 437.15 36.8341 437.228 36.7691C437.31 36.6998 437.39 36.6651 437.468 36.6651C437.564 36.6651 437.637 36.7019 437.689 36.7756L438.014 37.1981C437.871 37.3758 437.709 37.5274 437.527 37.6531C437.345 37.7788 437.148 37.8849 436.935 37.9716C436.727 38.0539 436.509 38.1146 436.279 38.1536C436.049 38.1926 435.815 38.2121 435.577 38.2121C435.165 38.2121 434.782 38.1363 434.426 37.9846C434.075 37.8329 433.77 37.6141 433.51 37.3281C433.25 37.0378 433.046 36.6824 432.899 36.2621C432.752 35.8418 432.678 35.3629 432.678 34.8256C432.678 34.3359 432.745 33.8831 432.879 33.4671C433.018 33.0511 433.217 32.6936 433.477 32.3946C433.742 32.0913 434.065 31.8551 434.446 31.6861C434.832 31.5171 435.274 31.4326 435.772 31.4326C436.236 31.4326 436.643 31.5084 436.994 31.6601C437.349 31.8074 437.663 32.0176 437.936 32.2906L437.631 32.7066ZM441.278 38.2251C440.758 38.2251 440.357 38.0799 440.075 37.7896C439.798 37.4993 439.659 37.0811 439.659 36.5351V32.5051H438.866C438.797 32.5051 438.739 32.4856 438.691 32.4466C438.643 32.4033 438.619 32.3383 438.619 32.2516V31.7901L439.698 31.6536L439.965 29.6191C439.978 29.5541 440.006 29.5021 440.049 29.4631C440.097 29.4198 440.158 29.3981 440.231 29.3981H440.816V31.6666H442.721V32.5051H440.816V36.4571C440.816 36.7344 440.884 36.9403 441.018 37.0746C441.152 37.2089 441.326 37.2761 441.538 37.2761C441.659 37.2761 441.763 37.2609 441.85 37.2306C441.941 37.1959 442.019 37.1591 442.084 37.1201C442.149 37.0811 442.203 37.0464 442.246 37.0161C442.294 36.9814 442.335 36.9641 442.37 36.9641C442.431 36.9641 442.485 37.0009 442.532 37.0746L442.87 37.6271C442.671 37.8134 442.431 37.9608 442.149 38.0691C441.867 38.1731 441.577 38.2251 441.278 38.2251Z" fill="black"/>
<circle cx="386.719" cy="121.801" r="5.80078" fill="#59CBE8"/>
<path d="M347.641 296.436C347.641 297.134 347.531 297.768 347.31 298.34C347.089 298.912 346.777 299.402 346.374 299.809C345.971 300.217 345.486 300.533 344.918 300.758C344.355 300.979 343.731 301.09 343.046 301.09H339.568V291.775H343.046C343.731 291.775 344.355 291.888 344.918 292.113C345.486 292.334 345.971 292.651 346.374 293.062C346.777 293.47 347.089 293.959 347.31 294.531C347.531 295.103 347.641 295.738 347.641 296.436ZM346.348 296.436C346.348 295.864 346.27 295.353 346.114 294.902C345.958 294.451 345.737 294.07 345.451 293.758C345.165 293.446 344.818 293.208 344.411 293.043C344.004 292.878 343.549 292.796 343.046 292.796H340.829V300.069H343.046C343.549 300.069 344.004 299.987 344.411 299.822C344.818 299.658 345.165 299.422 345.451 299.114C345.737 298.802 345.958 298.421 346.114 297.97C346.27 297.519 346.348 297.008 346.348 296.436ZM352.589 298.126C352.056 298.143 351.601 298.187 351.224 298.256C350.851 298.321 350.545 298.408 350.307 298.516C350.073 298.624 349.902 298.752 349.794 298.899C349.69 299.047 349.638 299.211 349.638 299.393C349.638 299.567 349.666 299.716 349.722 299.842C349.778 299.968 349.854 300.072 349.95 300.154C350.049 300.232 350.164 300.29 350.294 300.329C350.428 300.364 350.571 300.381 350.723 300.381C350.927 300.381 351.113 300.362 351.282 300.323C351.451 300.28 351.609 300.219 351.757 300.141C351.908 300.063 352.051 299.97 352.186 299.861C352.324 299.753 352.459 299.63 352.589 299.491V298.126ZM348.851 295.435C349.215 295.084 349.607 294.822 350.028 294.648C350.448 294.475 350.914 294.388 351.425 294.388C351.793 294.388 352.121 294.449 352.407 294.57C352.693 294.692 352.933 294.861 353.128 295.077C353.323 295.294 353.47 295.556 353.57 295.864C353.67 296.172 353.72 296.51 353.72 296.878V301.09H353.206C353.093 301.09 353.007 301.073 352.946 301.038C352.885 300.999 352.838 300.925 352.803 300.817L352.673 300.193C352.5 300.353 352.331 300.496 352.166 300.622C352.001 300.743 351.828 300.847 351.646 300.934C351.464 301.016 351.269 301.079 351.061 301.122C350.857 301.17 350.63 301.194 350.379 301.194C350.123 301.194 349.882 301.159 349.657 301.09C349.432 301.016 349.235 300.908 349.066 300.765C348.901 300.622 348.769 300.442 348.669 300.225C348.574 300.004 348.526 299.744 348.526 299.445C348.526 299.185 348.598 298.936 348.741 298.698C348.884 298.455 349.115 298.241 349.436 298.054C349.757 297.868 350.175 297.716 350.691 297.599C351.206 297.478 351.839 297.409 352.589 297.391V296.878C352.589 296.367 352.478 295.981 352.257 295.721C352.036 295.457 351.713 295.324 351.289 295.324C351.003 295.324 350.762 295.361 350.567 295.435C350.376 295.504 350.21 295.584 350.067 295.675C349.928 295.762 349.807 295.842 349.703 295.916C349.603 295.985 349.503 296.02 349.404 296.02C349.326 296.02 349.258 296 349.202 295.961C349.146 295.918 349.098 295.866 349.059 295.805L348.851 295.435ZM356.574 295.461C356.717 295.301 356.869 295.155 357.029 295.025C357.189 294.895 357.358 294.785 357.536 294.694C357.718 294.599 357.909 294.527 358.108 294.479C358.312 294.427 358.53 294.401 358.764 294.401C359.124 294.401 359.44 294.462 359.713 294.583C359.991 294.7 360.22 294.869 360.402 295.09C360.589 295.307 360.73 295.569 360.825 295.877C360.92 296.185 360.968 296.525 360.968 296.897V301.09H359.804V296.897C359.804 296.399 359.69 296.013 359.46 295.74C359.235 295.463 358.89 295.324 358.426 295.324C358.084 295.324 357.763 295.407 357.464 295.571C357.17 295.736 356.897 295.959 356.645 296.241V301.09H355.482V294.505H356.177C356.342 294.505 356.444 294.586 356.483 294.746L356.574 295.461ZM365.025 297.872C365.259 297.872 365.465 297.84 365.643 297.775C365.821 297.71 365.97 297.619 366.091 297.502C366.213 297.385 366.304 297.246 366.364 297.086C366.425 296.921 366.455 296.741 366.455 296.546C366.455 296.143 366.332 295.823 366.085 295.584C365.842 295.346 365.489 295.227 365.025 295.227C364.557 295.227 364.2 295.346 363.953 295.584C363.71 295.823 363.589 296.143 363.589 296.546C363.589 296.741 363.619 296.921 363.68 297.086C363.745 297.246 363.838 297.385 363.959 297.502C364.081 297.619 364.23 297.71 364.408 297.775C364.586 297.84 364.791 297.872 365.025 297.872ZM367.112 301.447C367.112 301.287 367.066 301.157 366.975 301.057C366.884 300.958 366.761 300.88 366.605 300.823C366.453 300.767 366.276 300.728 366.072 300.706C365.868 300.68 365.652 300.661 365.422 300.648C365.197 300.635 364.967 300.622 364.733 300.609C364.499 300.596 364.274 300.574 364.057 300.544C363.814 300.657 363.615 300.8 363.459 300.973C363.307 301.142 363.231 301.341 363.231 301.571C363.231 301.718 363.268 301.855 363.342 301.98C363.42 302.11 363.537 302.221 363.693 302.312C363.849 302.407 364.044 302.481 364.278 302.533C364.516 302.589 364.796 302.617 365.116 302.617C365.428 302.617 365.708 302.589 365.955 302.533C366.202 302.477 366.41 302.396 366.579 302.292C366.752 302.188 366.884 302.065 366.975 301.922C367.066 301.779 367.112 301.621 367.112 301.447ZM368.288 294.765V295.194C368.288 295.337 368.197 295.428 368.015 295.467L367.268 295.565C367.415 295.851 367.489 296.167 367.489 296.514C367.489 296.835 367.426 297.127 367.3 297.391C367.179 297.651 367.01 297.875 366.793 298.061C366.577 298.247 366.317 298.39 366.013 298.49C365.71 298.59 365.381 298.639 365.025 298.639C364.718 298.639 364.427 298.603 364.154 298.529C364.016 298.616 363.91 298.709 363.836 298.808C363.762 298.904 363.725 299.001 363.725 299.101C363.725 299.257 363.788 299.376 363.914 299.458C364.044 299.536 364.213 299.593 364.421 299.627C364.629 299.662 364.865 299.684 365.129 299.692C365.398 299.701 365.671 299.716 365.948 299.738C366.23 299.755 366.503 299.788 366.767 299.835C367.036 299.883 367.274 299.961 367.482 300.069C367.69 300.178 367.857 300.327 367.983 300.518C368.113 300.709 368.178 300.956 368.178 301.259C368.178 301.541 368.106 301.814 367.963 302.078C367.825 302.342 367.623 302.576 367.359 302.78C367.095 302.988 366.77 303.153 366.384 303.274C366.003 303.4 365.571 303.462 365.09 303.462C364.609 303.462 364.189 303.415 363.829 303.319C363.47 303.224 363.171 303.096 362.932 302.936C362.694 302.776 362.514 302.589 362.393 302.377C362.276 302.169 362.217 301.95 362.217 301.72C362.217 301.395 362.319 301.12 362.523 300.895C362.727 300.67 363.006 300.49 363.361 300.355C363.166 300.269 363.01 300.154 362.893 300.011C362.781 299.864 362.724 299.666 362.724 299.419C362.724 299.324 362.742 299.227 362.776 299.127C362.811 299.023 362.863 298.921 362.932 298.821C363.006 298.717 363.095 298.62 363.199 298.529C363.303 298.438 363.424 298.358 363.563 298.288C363.238 298.106 362.984 297.866 362.802 297.567C362.62 297.264 362.529 296.913 362.529 296.514C362.529 296.193 362.59 295.903 362.711 295.643C362.837 295.379 363.01 295.155 363.231 294.973C363.452 294.787 363.715 294.644 364.018 294.544C364.326 294.445 364.661 294.395 365.025 294.395C365.311 294.395 365.578 294.427 365.825 294.492C366.072 294.553 366.297 294.644 366.501 294.765H368.288ZM372.159 294.401C372.64 294.401 373.073 294.482 373.459 294.642C373.844 294.802 374.174 295.03 374.447 295.324C374.72 295.619 374.928 295.977 375.071 296.397C375.218 296.813 375.292 297.279 375.292 297.794C375.292 298.314 375.218 298.782 375.071 299.198C374.928 299.614 374.72 299.97 374.447 300.264C374.174 300.559 373.844 300.787 373.459 300.947C373.073 301.103 372.64 301.181 372.159 301.181C371.673 301.181 371.236 301.103 370.846 300.947C370.46 300.787 370.131 300.559 369.858 300.264C369.585 299.97 369.375 299.614 369.227 299.198C369.084 298.782 369.013 298.314 369.013 297.794C369.013 297.279 369.084 296.813 369.227 296.397C369.375 295.977 369.585 295.619 369.858 295.324C370.131 295.03 370.46 294.802 370.846 294.642C371.236 294.482 371.673 294.401 372.159 294.401ZM372.159 300.277C372.809 300.277 373.294 300.061 373.615 299.627C373.935 299.19 374.096 298.581 374.096 297.801C374.096 297.017 373.935 296.406 373.615 295.968C373.294 295.53 372.809 295.311 372.159 295.311C371.829 295.311 371.541 295.368 371.294 295.48C371.052 295.593 370.848 295.756 370.683 295.968C370.523 296.18 370.402 296.442 370.319 296.754C370.241 297.062 370.202 297.411 370.202 297.801C370.202 298.581 370.363 299.19 370.683 299.627C371.008 300.061 371.5 300.277 372.159 300.277ZM378.667 301.194C378.147 301.194 377.746 301.049 377.464 300.758C377.187 300.468 377.048 300.05 377.048 299.504V295.474H376.255C376.186 295.474 376.127 295.454 376.08 295.415C376.032 295.372 376.008 295.307 376.008 295.22V294.759L377.087 294.622L377.354 292.588C377.367 292.523 377.395 292.471 377.438 292.432C377.486 292.389 377.546 292.367 377.62 292.367H378.205V294.635H380.11V295.474H378.205V299.426C378.205 299.703 378.272 299.909 378.407 300.043C378.541 300.178 378.714 300.245 378.927 300.245C379.048 300.245 379.152 300.23 379.239 300.199C379.33 300.165 379.408 300.128 379.473 300.089C379.538 300.05 379.592 300.015 379.635 299.985C379.683 299.95 379.724 299.933 379.759 299.933C379.819 299.933 379.873 299.97 379.921 300.043L380.259 300.596C380.06 300.782 379.819 300.93 379.538 301.038C379.256 301.142 378.966 301.194 378.667 301.194ZM385.673 297.079C385.673 296.811 385.634 296.566 385.556 296.345C385.482 296.12 385.372 295.927 385.225 295.766C385.082 295.602 384.906 295.476 384.698 295.389C384.49 295.298 384.254 295.253 383.99 295.253C383.435 295.253 382.995 295.415 382.67 295.74C382.349 296.061 382.15 296.507 382.072 297.079H385.673ZM386.609 300.167C386.466 300.34 386.295 300.492 386.096 300.622C385.896 300.748 385.682 300.852 385.452 300.934C385.227 301.016 384.993 301.077 384.75 301.116C384.507 301.159 384.267 301.181 384.029 301.181C383.574 301.181 383.153 301.105 382.768 300.953C382.386 300.797 382.055 300.572 381.773 300.277C381.496 299.978 381.279 299.61 381.123 299.172C380.967 298.735 380.889 298.232 380.889 297.664C380.889 297.205 380.958 296.776 381.097 296.377C381.24 295.979 381.444 295.634 381.708 295.344C381.972 295.049 382.295 294.82 382.677 294.655C383.058 294.486 383.487 294.401 383.964 294.401C384.358 294.401 384.722 294.469 385.056 294.603C385.394 294.733 385.684 294.924 385.927 295.175C386.174 295.422 386.366 295.73 386.505 296.098C386.644 296.462 386.713 296.878 386.713 297.346C386.713 297.528 386.694 297.649 386.655 297.71C386.616 297.771 386.542 297.801 386.434 297.801H382.033C382.046 298.217 382.102 298.579 382.202 298.886C382.306 299.194 382.449 299.452 382.631 299.66C382.813 299.864 383.03 300.017 383.281 300.121C383.532 300.221 383.814 300.271 384.126 300.271C384.416 300.271 384.666 300.238 384.874 300.173C385.086 300.104 385.268 300.03 385.42 299.952C385.571 299.874 385.697 299.803 385.797 299.738C385.901 299.669 385.989 299.634 386.063 299.634C386.158 299.634 386.232 299.671 386.284 299.744L386.609 300.167Z" fill="#474747"/>
<path d="M442.847 296.611V300.186C442.379 300.524 441.879 300.778 441.346 300.947C440.817 301.112 440.236 301.194 439.604 301.194C438.854 301.194 438.178 301.079 437.576 300.849C436.973 300.615 436.458 300.29 436.029 299.874C435.604 299.454 435.277 298.951 435.047 298.366C434.818 297.781 434.703 297.138 434.703 296.436C434.703 295.725 434.813 295.077 435.034 294.492C435.26 293.907 435.578 293.407 435.99 292.991C436.401 292.571 436.902 292.246 437.491 292.016C438.081 291.786 438.739 291.671 439.467 291.671C439.836 291.671 440.178 291.7 440.494 291.756C440.811 291.808 441.103 291.886 441.372 291.99C441.64 292.09 441.89 292.213 442.119 292.36C442.349 292.503 442.563 292.666 442.763 292.848L442.405 293.42C442.349 293.507 442.275 293.563 442.184 293.589C442.098 293.611 442 293.589 441.892 293.524C441.788 293.463 441.669 293.39 441.534 293.303C441.4 293.216 441.235 293.134 441.04 293.056C440.85 292.974 440.622 292.904 440.358 292.848C440.098 292.792 439.788 292.763 439.428 292.763C438.904 292.763 438.429 292.85 438.005 293.023C437.58 293.192 437.218 293.437 436.919 293.758C436.62 294.074 436.391 294.46 436.23 294.915C436.07 295.366 435.99 295.873 435.99 296.436C435.99 297.021 436.072 297.545 436.237 298.009C436.406 298.468 436.644 298.86 436.952 299.185C437.264 299.506 437.641 299.751 438.083 299.92C438.525 300.089 439.021 300.173 439.571 300.173C440.005 300.173 440.388 300.126 440.722 300.03C441.06 299.931 441.389 299.794 441.71 299.621V297.573H440.26C440.178 297.573 440.111 297.55 440.059 297.502C440.011 297.454 439.987 297.396 439.987 297.326V296.611H442.847ZM445.637 291.515V301.09H444.48V291.515H445.637ZM450.289 294.401C450.77 294.401 451.203 294.482 451.589 294.642C451.974 294.802 452.304 295.03 452.577 295.324C452.85 295.619 453.058 295.977 453.201 296.397C453.348 296.813 453.422 297.279 453.422 297.794C453.422 298.314 453.348 298.782 453.201 299.198C453.058 299.614 452.85 299.97 452.577 300.264C452.304 300.559 451.974 300.787 451.589 300.947C451.203 301.103 450.77 301.181 450.289 301.181C449.803 301.181 449.366 301.103 448.976 300.947C448.59 300.787 448.261 300.559 447.988 300.264C447.715 299.97 447.505 299.614 447.357 299.198C447.214 298.782 447.143 298.314 447.143 297.794C447.143 297.279 447.214 296.813 447.357 296.397C447.505 295.977 447.715 295.619 447.988 295.324C448.261 295.03 448.59 294.802 448.976 294.642C449.366 294.482 449.803 294.401 450.289 294.401ZM450.289 300.277C450.939 300.277 451.424 300.061 451.745 299.627C452.065 299.19 452.226 298.581 452.226 297.801C452.226 297.017 452.065 296.406 451.745 295.968C451.424 295.53 450.939 295.311 450.289 295.311C449.959 295.311 449.671 295.368 449.424 295.48C449.182 295.593 448.978 295.756 448.813 295.968C448.653 296.18 448.532 296.442 448.449 296.754C448.371 297.062 448.332 297.411 448.332 297.801C448.332 298.581 448.493 299.19 448.813 299.627C449.138 300.061 449.63 300.277 450.289 300.277ZM456.053 299.504C456.265 299.79 456.497 299.991 456.748 300.108C457.004 300.225 457.283 300.284 457.587 300.284C458.206 300.284 458.681 300.065 459.01 299.627C459.339 299.19 459.504 298.538 459.504 297.671C459.504 296.865 459.357 296.273 459.062 295.896C458.772 295.515 458.356 295.324 457.814 295.324C457.437 295.324 457.108 295.411 456.826 295.584C456.549 295.758 456.291 296.003 456.053 296.319V299.504ZM456.053 295.454C456.33 295.134 456.642 294.878 456.989 294.687C457.34 294.497 457.743 294.401 458.198 294.401C458.583 294.401 458.93 294.475 459.238 294.622C459.55 294.77 459.814 294.984 460.031 295.266C460.247 295.543 460.412 295.881 460.525 296.28C460.642 296.679 460.7 297.127 460.7 297.625C460.7 298.158 460.635 298.644 460.505 299.081C460.375 299.519 460.187 299.894 459.94 300.206C459.697 300.514 459.4 300.754 459.049 300.927C458.698 301.096 458.304 301.181 457.866 301.181C457.433 301.181 457.067 301.101 456.768 300.94C456.473 300.776 456.215 300.544 455.994 300.245L455.936 300.843C455.901 301.008 455.801 301.09 455.637 301.09H454.889V291.515H456.053V295.454ZM465.732 298.126C465.199 298.143 464.744 298.187 464.367 298.256C463.994 298.321 463.689 298.408 463.451 298.516C463.217 298.624 463.045 298.752 462.937 298.899C462.833 299.047 462.781 299.211 462.781 299.393C462.781 299.567 462.809 299.716 462.866 299.842C462.922 299.968 462.998 300.072 463.093 300.154C463.193 300.232 463.308 300.29 463.438 300.329C463.572 300.364 463.715 300.381 463.867 300.381C464.07 300.381 464.257 300.362 464.426 300.323C464.595 300.28 464.753 300.219 464.9 300.141C465.052 300.063 465.195 299.97 465.329 299.861C465.468 299.753 465.602 299.63 465.732 299.491V298.126ZM461.995 295.435C462.359 295.084 462.751 294.822 463.171 294.648C463.591 294.475 464.057 294.388 464.569 294.388C464.937 294.388 465.264 294.449 465.55 294.57C465.836 294.692 466.077 294.861 466.272 295.077C466.467 295.294 466.614 295.556 466.714 295.864C466.813 296.172 466.863 296.51 466.863 296.878V301.09H466.35C466.237 301.09 466.15 301.073 466.09 301.038C466.029 300.999 465.981 300.925 465.947 300.817L465.817 300.193C465.643 300.353 465.474 300.496 465.31 300.622C465.145 300.743 464.972 300.847 464.79 300.934C464.608 301.016 464.413 301.079 464.205 301.122C464.001 301.17 463.773 301.194 463.522 301.194C463.266 301.194 463.026 301.159 462.801 301.09C462.575 301.016 462.378 300.908 462.209 300.765C462.044 300.622 461.912 300.442 461.813 300.225C461.717 300.004 461.67 299.744 461.67 299.445C461.67 299.185 461.741 298.936 461.884 298.698C462.027 298.455 462.259 298.241 462.58 298.054C462.9 297.868 463.318 297.716 463.834 297.599C464.35 297.478 464.982 297.409 465.732 297.391V296.878C465.732 296.367 465.622 295.981 465.401 295.721C465.18 295.457 464.857 295.324 464.432 295.324C464.146 295.324 463.906 295.361 463.711 295.435C463.52 295.504 463.353 295.584 463.21 295.675C463.071 295.762 462.95 295.842 462.846 295.916C462.746 295.985 462.647 296.02 462.547 296.02C462.469 296.02 462.402 296 462.346 295.961C462.289 295.918 462.242 295.866 462.203 295.805L461.995 295.435ZM473.208 295.675C473.173 295.723 473.139 295.76 473.104 295.786C473.069 295.812 473.022 295.825 472.961 295.825C472.896 295.825 472.824 295.799 472.746 295.747C472.668 295.691 472.571 295.63 472.454 295.565C472.341 295.5 472.2 295.441 472.031 295.389C471.867 295.333 471.663 295.305 471.42 295.305C471.095 295.305 470.809 295.363 470.562 295.48C470.315 295.593 470.107 295.758 469.938 295.974C469.774 296.191 469.648 296.453 469.561 296.761C469.479 297.069 469.438 297.413 469.438 297.794C469.438 298.193 469.483 298.548 469.574 298.86C469.665 299.168 469.793 299.428 469.958 299.64C470.127 299.848 470.328 300.009 470.562 300.121C470.801 300.23 471.067 300.284 471.362 300.284C471.644 300.284 471.875 300.251 472.057 300.186C472.239 300.117 472.389 300.041 472.506 299.959C472.627 299.877 472.727 299.803 472.805 299.738C472.887 299.669 472.967 299.634 473.045 299.634C473.141 299.634 473.214 299.671 473.266 299.744L473.591 300.167C473.448 300.345 473.286 300.496 473.104 300.622C472.922 300.748 472.725 300.854 472.512 300.94C472.304 301.023 472.086 301.083 471.856 301.122C471.626 301.161 471.392 301.181 471.154 301.181C470.742 301.181 470.359 301.105 470.003 300.953C469.652 300.802 469.347 300.583 469.087 300.297C468.827 300.007 468.623 299.651 468.476 299.231C468.329 298.811 468.255 298.332 468.255 297.794C468.255 297.305 468.322 296.852 468.456 296.436C468.595 296.02 468.794 295.662 469.054 295.363C469.319 295.06 469.642 294.824 470.023 294.655C470.409 294.486 470.851 294.401 471.349 294.401C471.813 294.401 472.22 294.477 472.571 294.629C472.926 294.776 473.24 294.986 473.513 295.259L473.208 295.675ZM477.495 294.401C477.976 294.401 478.409 294.482 478.795 294.642C479.18 294.802 479.51 295.03 479.783 295.324C480.056 295.619 480.264 295.977 480.407 296.397C480.554 296.813 480.628 297.279 480.628 297.794C480.628 298.314 480.554 298.782 480.407 299.198C480.264 299.614 480.056 299.97 479.783 300.264C479.51 300.559 479.18 300.787 478.795 300.947C478.409 301.103 477.976 301.181 477.495 301.181C477.009 301.181 476.572 301.103 476.182 300.947C475.796 300.787 475.467 300.559 475.194 300.264C474.921 299.97 474.711 299.614 474.563 299.198C474.42 298.782 474.349 298.314 474.349 297.794C474.349 297.279 474.42 296.813 474.563 296.397C474.711 295.977 474.921 295.619 475.194 295.324C475.467 295.03 475.796 294.802 476.182 294.642C476.572 294.482 477.009 294.401 477.495 294.401ZM477.495 300.277C478.145 300.277 478.63 300.061 478.951 299.627C479.271 299.19 479.432 298.581 479.432 297.801C479.432 297.017 479.271 296.406 478.951 295.968C478.63 295.53 478.145 295.311 477.495 295.311C477.165 295.311 476.877 295.368 476.63 295.48C476.388 295.593 476.184 295.756 476.019 295.968C475.859 296.18 475.738 296.442 475.655 296.754C475.577 297.062 475.538 297.411 475.538 297.801C475.538 298.581 475.699 299.19 476.019 299.627C476.344 300.061 476.836 300.277 477.495 300.277ZM482.095 301.09V294.505H482.791C482.955 294.505 483.057 294.586 483.096 294.746L483.181 295.422C483.423 295.123 483.696 294.878 484 294.687C484.303 294.497 484.654 294.401 485.053 294.401C485.495 294.401 485.852 294.525 486.125 294.772C486.403 295.019 486.602 295.353 486.723 295.773C486.819 295.535 486.94 295.329 487.087 295.155C487.239 294.982 487.408 294.839 487.594 294.726C487.781 294.614 487.978 294.531 488.186 294.479C488.398 294.427 488.613 294.401 488.829 294.401C489.176 294.401 489.484 294.458 489.752 294.57C490.025 294.679 490.255 294.839 490.441 295.051C490.632 295.264 490.777 295.526 490.877 295.838C490.976 296.146 491.026 296.499 491.026 296.897V301.09H489.863V296.897C489.863 296.382 489.75 295.992 489.525 295.727C489.299 295.459 488.974 295.324 488.55 295.324C488.359 295.324 488.177 295.359 488.004 295.428C487.835 295.493 487.685 295.591 487.555 295.721C487.425 295.851 487.321 296.016 487.243 296.215C487.17 296.41 487.133 296.637 487.133 296.897V301.09H485.969V296.897C485.969 296.369 485.863 295.974 485.651 295.714C485.438 295.454 485.129 295.324 484.721 295.324C484.435 295.324 484.171 295.402 483.928 295.558C483.686 295.71 483.462 295.918 483.259 296.182V301.09H482.095Z" fill="#474747"/>
<rect x="317.109" y="288.09" width="15.4688" height="15.4688" fill="#B580D1"/>
<rect x="412.822" y="288.09" width="15.4688" height="15.4688" fill="#59CBE8"/>
<defs>
<filter id="filter0_d" x="331.279" y="10.3535" width="132.148" height="48.0371" filterUnits="userSpaceOnUse" color-interpolation-filters="sRGB">
<feFlood flood-opacity="0" result="BackgroundImageFix"/>
<feColorMatrix in="SourceAlpha" type="matrix" values="0 0 0 0 0 0 0 0 0 0 0 0 0 0 0 0 0 0 127 0"/>
<feOffset dy="2"/>
<feGaussianBlur stdDeviation="5"/>
<feColorMatrix type="matrix" values="0 0 0 0 0 0 0 0 0 0 0 0 0 0 0 0 0 0 0.25 0"/>
<feBlend mode="normal" in2="BackgroundImageFix" result="effect1_dropShadow"/>
<feBlend mode="normal" in="SourceGraphic" in2="effect1_dropShadow" result="shape"/>
</filter>
<linearGradient id="paint0_linear" x1="260.068" y1="142.104" x2="260.068" y2="226.698" gradientUnits="userSpaceOnUse">
<stop stop-color="#59CBE8" stop-opacity="0.25"/>
<stop offset="1" stop-color="#D5F5D5" stop-opacity="0.12"/>
</linearGradient>
<linearGradient id="paint1_linear" x1="260.068" y1="142.104" x2="260.068" y2="226.698" gradientUnits="userSpaceOnUse">
<stop stop-color="#B580D1" stop-opacity="0.25"/>
<stop offset="1" stop-color="#D5F5D5" stop-opacity="0.12"/>
</linearGradient>
</defs>
</svg>
