<svg width="20" height="18" viewBox="0 0 20 18" fill="none" xmlns="http://www.w3.org/2000/svg">
<path fill-rule="evenodd" clip-rule="evenodd" d="M0.910665 1.14911C1.04721 0.854803 1.34216 0.666504 1.6666 0.666504H18.3333C18.6577 0.666504 18.9526 0.854803 19.0892 1.14911C19.2257 1.44341 19.1791 1.79021 18.9696 2.03794L12.4999 9.68829V16.4998C12.4999 16.7887 12.3504 17.0569 12.1047 17.2087C11.859 17.3606 11.5522 17.3744 11.2939 17.2452L7.96058 15.5785C7.67826 15.4374 7.49993 15.1488 7.49993 14.8332V9.68829L1.03029 2.03794C0.82079 1.79021 0.774116 1.44341 0.910665 1.14911ZM3.46268 2.33317L8.96957 8.84507C9.09679 8.99551 9.1666 9.18615 9.1666 9.38317V14.3181L10.8333 15.1515V9.38317C10.8333 9.18615 10.9031 8.99551 11.0303 8.84507L16.5372 2.33317H3.46268Z" fill="#B580D1"/>
</svg>
