<svg id="Capa_1" width="20" height="17" enable-background="new 0 0 512 512" fill="#ffffff" viewBox="0 0 512 512"  xmlns="http://www.w3.org/2000/svg"><g><path d="m493.736 301.25h-39.938l-72.776 126.831h82.386l-.109 42.297 30 .077.109-42.375h18.592v-30h-18.513zm-30.249 96.831h-30.662l30.8-53.677z"/><path d="m367.941 394.844c9.293-13.278 16.062-27.464 17.859-43.424 0-27.48-22.357-49.838-49.838-49.838-23.761 0-44.328 16.904-48.903 40.194l-2.891 14.719 29.438 5.782 2.891-14.719c1.818-9.257 10.005-15.977 19.465-15.977 10.663 0 19.388 8.456 19.821 19.015-2.013 10.025-6.477 18.554-12.42 27.045-32.816 46.887-47.166 62.244-47.28 62.365l-4.119 4.322-.094 25.491 99.654.305.092-30-56.684-.173c7.949-10.238 18.834-24.853 33.009-45.107z"/><g><g><path d="m421.077 241c-7.158-79.453-70.625-142.908-150.077-150.068v30.568h-30v-30.564c-79.449 7.161-142.903 70.615-150.064 150.064h30.564v30h-30.568c7.16 79.452 70.615 142.919 150.068 150.077v-30.577h30v-91.948c-4.696 1.66-9.742 2.573-15 2.573-6.974 0-13.582-1.592-19.484-4.428l-30.326 30.326-21.213-21.213 30.326-30.326c-2.837-5.901-4.428-12.51-4.428-19.484 0-19.624 12.596-36.354 30.125-42.552v-47.823h30v47.823c17.529 6.198 30.125 22.927 30.125 42.552 0 5.258-.913 10.304-2.573 15h91.948v-30z"/><circle cx="256" cy="256" r="15.125"/><path d="m437.019 74.98c-48.352-48.352-112.639-74.98-181.019-74.98s-132.667 26.628-181.019 74.98c-48.353 48.353-74.981 112.64-74.981 181.02s26.628 132.667 74.981 181.02c48.352 48.352 112.639 74.98 181.019 74.98h15v-60.25h-15c-107.937 0-195.75-87.813-195.75-195.75s87.813-195.75 195.75-195.75 195.75 87.813 195.75 195.75v15h60.25v-15c0-68.38-26.628-132.667-74.981-181.02z"/></g></g></g></svg>
